ISO-10303-21;
HEADER;
/* Generated by software containing ST-Developer
 * from STEP Tools, Inc. (www.steptools.com) 
 */

FILE_DESCRIPTION(
/* description */ (''),
/* implementation_level */ '2;1');

FILE_NAME(
/* name */ 'Bezel.step',
/* time_stamp */ '2025-12-17T18:52:11-08:00',
/* author */ (''),
/* organization */ (''),
/* preprocessor_version */ 'ST-DEVELOPER v20.1',
/* originating_system */ 'Autodesk Translation Framework v14.21.0.0',
/* authorisation */ '');

FILE_SCHEMA (('AUTOMOTIVE_DESIGN { 1 0 10303 214 3 1 1 }'));
ENDSEC;

DATA;
#10=MECHANICAL_DESIGN_GEOMETRIC_PRESENTATION_REPRESENTATION('',(#13),#1433);
#11=SHAPE_REPRESENTATION_RELATIONSHIP('SRR','None',#1439,#12);
#12=ADVANCED_BREP_SHAPE_REPRESENTATION('',(#14),#1432);
#13=STYLED_ITEM('',(#1449),#14);
#14=MANIFOLD_SOLID_BREP('Body1',#869);
#15=CONICAL_SURFACE('',#912,2.25,0.785398163397448);
#16=CONICAL_SURFACE('',#915,2.25,0.785398163397455);
#17=CONICAL_SURFACE('',#918,2.25,0.785398163397448);
#18=CONICAL_SURFACE('',#921,2.25,0.785398163397455);
#19=CONICAL_SURFACE('',#924,2.25,0.785398163397455);
#20=CONICAL_SURFACE('',#927,2.25,0.785398163397455);
#21=CONICAL_SURFACE('',#930,2.25,0.785398163397455);
#22=CONICAL_SURFACE('',#933,2.25,0.785398163397455);
#23=FACE_BOUND('',#122,.T.);
#24=FACE_BOUND('',#125,.T.);
#25=FACE_BOUND('',#132,.T.);
#26=FACE_BOUND('',#133,.T.);
#27=FACE_BOUND('',#134,.T.);
#28=FACE_BOUND('',#135,.T.);
#29=FACE_BOUND('',#136,.T.);
#30=FACE_BOUND('',#137,.T.);
#31=FACE_BOUND('',#138,.T.);
#32=FACE_BOUND('',#139,.T.);
#33=FACE_BOUND('',#140,.T.);
#34=FACE_BOUND('',#141,.T.);
#35=FACE_BOUND('',#149,.T.);
#36=FACE_BOUND('',#150,.T.);
#37=FACE_BOUND('',#151,.T.);
#38=FACE_BOUND('',#152,.T.);
#39=FACE_BOUND('',#153,.T.);
#40=FACE_BOUND('',#154,.T.);
#41=FACE_BOUND('',#155,.T.);
#42=FACE_BOUND('',#156,.T.);
#43=FACE_BOUND('',#157,.T.);
#44=FACE_BOUND('',#158,.T.);
#45=FACE_BOUND('',#159,.T.);
#46=PLANE('',#874);
#47=PLANE('',#879);
#48=PLANE('',#885);
#49=PLANE('',#886);
#50=PLANE('',#887);
#51=PLANE('',#888);
#52=PLANE('',#897);
#53=PLANE('',#898);
#54=PLANE('',#899);
#55=PLANE('',#900);
#56=PLANE('',#901);
#57=PLANE('',#902);
#58=PLANE('',#903);
#59=PLANE('',#936);
#60=PLANE('',#937);
#61=PLANE('',#938);
#62=PLANE('',#939);
#63=PLANE('',#940);
#64=PLANE('',#941);
#65=PLANE('',#942);
#66=PLANE('',#943);
#67=PLANE('',#944);
#68=PLANE('',#945);
#69=PLANE('',#946);
#70=PLANE('',#947);
#71=PLANE('',#948);
#72=PLANE('',#949);
#73=FACE_OUTER_BOUND('',#120,.T.);
#74=FACE_OUTER_BOUND('',#121,.T.);
#75=FACE_OUTER_BOUND('',#123,.T.);
#76=FACE_OUTER_BOUND('',#124,.T.);
#77=FACE_OUTER_BOUND('',#126,.T.);
#78=FACE_OUTER_BOUND('',#127,.T.);
#79=FACE_OUTER_BOUND('',#128,.T.);
#80=FACE_OUTER_BOUND('',#129,.T.);
#81=FACE_OUTER_BOUND('',#130,.T.);
#82=FACE_OUTER_BOUND('',#131,.T.);
#83=FACE_OUTER_BOUND('',#142,.T.);
#84=FACE_OUTER_BOUND('',#143,.T.);
#85=FACE_OUTER_BOUND('',#144,.T.);
#86=FACE_OUTER_BOUND('',#145,.T.);
#87=FACE_OUTER_BOUND('',#146,.T.);
#88=FACE_OUTER_BOUND('',#147,.T.);
#89=FACE_OUTER_BOUND('',#148,.T.);
#90=FACE_OUTER_BOUND('',#160,.T.);
#91=FACE_OUTER_BOUND('',#161,.T.);
#92=FACE_OUTER_BOUND('',#162,.T.);
#93=FACE_OUTER_BOUND('',#163,.T.);
#94=FACE_OUTER_BOUND('',#164,.T.);
#95=FACE_OUTER_BOUND('',#165,.T.);
#96=FACE_OUTER_BOUND('',#166,.T.);
#97=FACE_OUTER_BOUND('',#167,.T.);
#98=FACE_OUTER_BOUND('',#168,.T.);
#99=FACE_OUTER_BOUND('',#169,.T.);
#100=FACE_OUTER_BOUND('',#170,.T.);
#101=FACE_OUTER_BOUND('',#171,.T.);
#102=FACE_OUTER_BOUND('',#172,.T.);
#103=FACE_OUTER_BOUND('',#173,.T.);
#104=FACE_OUTER_BOUND('',#174,.T.);
#105=FACE_OUTER_BOUND('',#175,.T.);
#106=FACE_OUTER_BOUND('',#176,.T.);
#107=FACE_OUTER_BOUND('',#177,.T.);
#108=FACE_OUTER_BOUND('',#178,.T.);
#109=FACE_OUTER_BOUND('',#179,.T.);
#110=FACE_OUTER_BOUND('',#180,.T.);
#111=FACE_OUTER_BOUND('',#181,.T.);
#112=FACE_OUTER_BOUND('',#182,.T.);
#113=FACE_OUTER_BOUND('',#183,.T.);
#114=FACE_OUTER_BOUND('',#184,.T.);
#115=FACE_OUTER_BOUND('',#185,.T.);
#116=FACE_OUTER_BOUND('',#186,.T.);
#117=FACE_OUTER_BOUND('',#187,.T.);
#118=FACE_OUTER_BOUND('',#188,.T.);
#119=FACE_OUTER_BOUND('',#189,.T.);
#120=EDGE_LOOP('',(#578,#579,#580,#581));
#121=EDGE_LOOP('',(#582));
#122=EDGE_LOOP('',(#583));
#123=EDGE_LOOP('',(#584,#585,#586,#587));
#124=EDGE_LOOP('',(#588));
#125=EDGE_LOOP('',(#589));
#126=EDGE_LOOP('',(#590,#591,#592,#593));
#127=EDGE_LOOP('',(#594,#595,#596,#597));
#128=EDGE_LOOP('',(#598,#599,#600,#601));
#129=EDGE_LOOP('',(#602,#603,#604,#605));
#130=EDGE_LOOP('',(#606,#607,#608,#609));
#131=EDGE_LOOP('',(#610,#611,#612,#613,#614,#615,#616,#617,#618,#619,#620,
#621,#622,#623,#624,#625));
#132=EDGE_LOOP('',(#626));
#133=EDGE_LOOP('',(#627));
#134=EDGE_LOOP('',(#628));
#135=EDGE_LOOP('',(#629));
#136=EDGE_LOOP('',(#630));
#137=EDGE_LOOP('',(#631));
#138=EDGE_LOOP('',(#632));
#139=EDGE_LOOP('',(#633));
#140=EDGE_LOOP('',(#634));
#141=EDGE_LOOP('',(#635));
#142=EDGE_LOOP('',(#636,#637,#638,#639,#640,#641,#642,#643));
#143=EDGE_LOOP('',(#644,#645,#646,#647));
#144=EDGE_LOOP('',(#648,#649,#650,#651));
#145=EDGE_LOOP('',(#652,#653,#654,#655));
#146=EDGE_LOOP('',(#656,#657,#658,#659));
#147=EDGE_LOOP('',(#660,#661,#662,#663));
#148=EDGE_LOOP('',(#664,#665,#666,#667));
#149=EDGE_LOOP('',(#668));
#150=EDGE_LOOP('',(#669));
#151=EDGE_LOOP('',(#670));
#152=EDGE_LOOP('',(#671));
#153=EDGE_LOOP('',(#672));
#154=EDGE_LOOP('',(#673));
#155=EDGE_LOOP('',(#674));
#156=EDGE_LOOP('',(#675));
#157=EDGE_LOOP('',(#676));
#158=EDGE_LOOP('',(#677));
#159=EDGE_LOOP('',(#678,#679,#680,#681));
#160=EDGE_LOOP('',(#682,#683,#684,#685));
#161=EDGE_LOOP('',(#686,#687,#688,#689));
#162=EDGE_LOOP('',(#690,#691,#692,#693));
#163=EDGE_LOOP('',(#694,#695,#696,#697));
#164=EDGE_LOOP('',(#698,#699,#700,#701));
#165=EDGE_LOOP('',(#702,#703,#704,#705));
#166=EDGE_LOOP('',(#706,#707,#708,#709));
#167=EDGE_LOOP('',(#710,#711,#712,#713));
#168=EDGE_LOOP('',(#714,#715,#716,#717));
#169=EDGE_LOOP('',(#718,#719,#720,#721));
#170=EDGE_LOOP('',(#722,#723,#724,#725));
#171=EDGE_LOOP('',(#726,#727,#728,#729));
#172=EDGE_LOOP('',(#730,#731,#732,#733));
#173=EDGE_LOOP('',(#734,#735,#736,#737));
#174=EDGE_LOOP('',(#738,#739,#740,#741));
#175=EDGE_LOOP('',(#742,#743,#744,#745));
#176=EDGE_LOOP('',(#746,#747,#748,#749));
#177=EDGE_LOOP('',(#750,#751,#752,#753));
#178=EDGE_LOOP('',(#754,#755,#756,#757));
#179=EDGE_LOOP('',(#758,#759,#760,#761));
#180=EDGE_LOOP('',(#762,#763,#764,#765,#766,#767,#768,#769));
#181=EDGE_LOOP('',(#770,#771,#772,#773));
#182=EDGE_LOOP('',(#774,#775,#776,#777));
#183=EDGE_LOOP('',(#778,#779,#780,#781));
#184=EDGE_LOOP('',(#782,#783,#784,#785));
#185=EDGE_LOOP('',(#786,#787,#788,#789));
#186=EDGE_LOOP('',(#790,#791,#792,#793));
#187=EDGE_LOOP('',(#794,#795,#796,#797));
#188=EDGE_LOOP('',(#798,#799,#800,#801));
#189=EDGE_LOOP('',(#802,#803,#804,#805,#806,#807,#808,#809));
#190=LINE('',#1199,#274);
#191=LINE('',#1208,#275);
#192=LINE('',#1216,#276);
#193=LINE('',#1220,#277);
#194=LINE('',#1224,#278);
#195=LINE('',#1226,#279);
#196=LINE('',#1228,#280);
#197=LINE('',#1229,#281);
#198=LINE('',#1232,#282);
#199=LINE('',#1234,#283);
#200=LINE('',#1235,#284);
#201=LINE('',#1238,#285);
#202=LINE('',#1240,#286);
#203=LINE('',#1241,#287);
#204=LINE('',#1244,#288);
#205=LINE('',#1246,#289);
#206=LINE('',#1248,#290);
#207=LINE('',#1250,#291);
#208=LINE('',#1251,#292);
#209=LINE('',#1253,#293);
#210=LINE('',#1255,#294);
#211=LINE('',#1257,#295);
#212=LINE('',#1259,#296);
#213=LINE('',#1261,#297);
#214=LINE('',#1263,#298);
#215=LINE('',#1265,#299);
#216=LINE('',#1267,#300);
#217=LINE('',#1268,#301);
#218=LINE('',#1287,#302);
#219=LINE('',#1289,#303);
#220=LINE('',#1290,#304);
#221=LINE('',#1294,#305);
#222=LINE('',#1296,#306);
#223=LINE('',#1297,#307);
#224=LINE('',#1298,#308);
#225=LINE('',#1301,#309);
#226=LINE('',#1303,#310);
#227=LINE('',#1304,#311);
#228=LINE('',#1307,#312);
#229=LINE('',#1308,#313);
#230=LINE('',#1309,#314);
#231=LINE('',#1311,#315);
#232=LINE('',#1313,#316);
#233=LINE('',#1317,#317);
#234=LINE('',#1319,#318);
#235=LINE('',#1321,#319);
#236=LINE('',#1322,#320);
#237=LINE('',#1341,#321);
#238=LINE('',#1344,#322);
#239=LINE('',#1347,#323);
#240=LINE('',#1350,#324);
#241=LINE('',#1353,#325);
#242=LINE('',#1356,#326);
#243=LINE('',#1359,#327);
#244=LINE('',#1362,#328);
#245=LINE('',#1365,#329);
#246=LINE('',#1368,#330);
#247=LINE('',#1371,#331);
#248=LINE('',#1374,#332);
#249=LINE('',#1377,#333);
#250=LINE('',#1380,#334);
#251=LINE('',#1383,#335);
#252=LINE('',#1386,#336);
#253=LINE('',#1389,#337);
#254=LINE('',#1391,#338);
#255=LINE('',#1392,#339);
#256=LINE('',#1395,#340);
#257=LINE('',#1396,#341);
#258=LINE('',#1399,#342);
#259=LINE('',#1400,#343);
#260=LINE('',#1402,#344);
#261=LINE('',#1405,#345);
#262=LINE('',#1407,#346);
#263=LINE('',#1408,#347);
#264=LINE('',#1411,#348);
#265=LINE('',#1412,#349);
#266=LINE('',#1413,#350);
#267=LINE('',#1416,#351);
#268=LINE('',#1417,#352);
#269=LINE('',#1419,#353);
#270=LINE('',#1420,#354);
#271=LINE('',#1423,#355);
#272=LINE('',#1425,#356);
#273=LINE('',#1428,#357);
#274=VECTOR('',#956,4.00000000000002);
#275=VECTOR('',#967,3.99999999999999);
#276=VECTOR('',#978,2.5);
#277=VECTOR('',#983,2.5);
#278=VECTOR('',#986,10.);
#279=VECTOR('',#987,10.);
#280=VECTOR('',#988,10.);
#281=VECTOR('',#989,10.);
#282=VECTOR('',#992,10.);
#283=VECTOR('',#993,10.);
#284=VECTOR('',#994,10.);
#285=VECTOR('',#997,10.);
#286=VECTOR('',#998,10.);
#287=VECTOR('',#999,10.);
#288=VECTOR('',#1002,10.);
#289=VECTOR('',#1003,10.);
#290=VECTOR('',#1004,10.);
#291=VECTOR('',#1005,10.);
#292=VECTOR('',#1006,10.);
#293=VECTOR('',#1007,10.);
#294=VECTOR('',#1008,10.);
#295=VECTOR('',#1009,10.);
#296=VECTOR('',#1010,10.);
#297=VECTOR('',#1011,10.);
#298=VECTOR('',#1012,10.);
#299=VECTOR('',#1013,10.);
#300=VECTOR('',#1014,10.);
#301=VECTOR('',#1015,10.);
#302=VECTOR('',#1034,10.);
#303=VECTOR('',#1035,10.);
#304=VECTOR('',#1036,10.);
#305=VECTOR('',#1039,10.);
#306=VECTOR('',#1040,10.);
#307=VECTOR('',#1041,10.);
#308=VECTOR('',#1042,10.);
#309=VECTOR('',#1045,10.);
#310=VECTOR('',#1046,10.);
#311=VECTOR('',#1047,10.);
#312=VECTOR('',#1050,10.);
#313=VECTOR('',#1051,10.);
#314=VECTOR('',#1052,10.);
#315=VECTOR('',#1055,10.);
#316=VECTOR('',#1058,10.);
#317=VECTOR('',#1061,10.);
#318=VECTOR('',#1062,10.);
#319=VECTOR('',#1063,10.);
#320=VECTOR('',#1064,10.);
#321=VECTOR('',#1083,2.25);
#322=VECTOR('',#1088,2.);
#323=VECTOR('',#1091,2.25);
#324=VECTOR('',#1096,1.99999999999999);
#325=VECTOR('',#1099,2.25);
#326=VECTOR('',#1104,2.);
#327=VECTOR('',#1107,2.25);
#328=VECTOR('',#1112,1.99999999999999);
#329=VECTOR('',#1115,2.25);
#330=VECTOR('',#1120,1.99999999999999);
#331=VECTOR('',#1123,2.25);
#332=VECTOR('',#1128,1.99999999999999);
#333=VECTOR('',#1131,2.25);
#334=VECTOR('',#1136,1.99999999999999);
#335=VECTOR('',#1139,2.25);
#336=VECTOR('',#1144,1.99999999999999);
#337=VECTOR('',#1147,10.);
#338=VECTOR('',#1148,10.);
#339=VECTOR('',#1149,10.);
#340=VECTOR('',#1152,10.);
#341=VECTOR('',#1153,10.);
#342=VECTOR('',#1156,10.);
#343=VECTOR('',#1157,10.);
#344=VECTOR('',#1160,10.);
#345=VECTOR('',#1163,10.);
#346=VECTOR('',#1164,10.);
#347=VECTOR('',#1165,10.);
#348=VECTOR('',#1168,10.);
#349=VECTOR('',#1169,10.);
#350=VECTOR('',#1170,10.);
#351=VECTOR('',#1173,10.);
#352=VECTOR('',#1174,10.);
#353=VECTOR('',#1177,10.);
#354=VECTOR('',#1178,10.);
#355=VECTOR('',#1183,10.);
#356=VECTOR('',#1186,10.);
#357=VECTOR('',#1191,10.);
#358=CIRCLE('',#872,4.00000000000002);
#359=CIRCLE('',#873,4.00000000000002);
#360=CIRCLE('',#875,2.5);
#361=CIRCLE('',#877,3.99999999999999);
#362=CIRCLE('',#878,3.99999999999999);
#363=CIRCLE('',#880,2.5);
#364=CIRCLE('',#882,2.5);
#365=CIRCLE('',#884,2.5);
#366=CIRCLE('',#889,2.);
#367=CIRCLE('',#890,1.99999999999999);
#368=CIRCLE('',#891,1.99999999999999);
#369=CIRCLE('',#892,1.99999999999999);
#370=CIRCLE('',#893,2.);
#371=CIRCLE('',#894,1.99999999999999);
#372=CIRCLE('',#895,1.99999999999999);
#373=CIRCLE('',#896,1.99999999999999);
#374=CIRCLE('',#904,2.5);
#375=CIRCLE('',#905,2.5);
#376=CIRCLE('',#906,2.5);
#377=CIRCLE('',#907,2.5);
#378=CIRCLE('',#908,2.5);
#379=CIRCLE('',#909,2.5);
#380=CIRCLE('',#910,2.5);
#381=CIRCLE('',#911,2.5);
#382=CIRCLE('',#913,2.);
#383=CIRCLE('',#916,1.99999999999999);
#384=CIRCLE('',#919,2.);
#385=CIRCLE('',#922,1.99999999999999);
#386=CIRCLE('',#925,1.99999999999999);
#387=CIRCLE('',#928,1.99999999999999);
#388=CIRCLE('',#931,1.99999999999999);
#389=CIRCLE('',#934,1.99999999999999);
#390=VERTEX_POINT('',#1196);
#391=VERTEX_POINT('',#1198);
#392=VERTEX_POINT('',#1202);
#393=VERTEX_POINT('',#1205);
#394=VERTEX_POINT('',#1207);
#395=VERTEX_POINT('',#1211);
#396=VERTEX_POINT('',#1214);
#397=VERTEX_POINT('',#1218);
#398=VERTEX_POINT('',#1222);
#399=VERTEX_POINT('',#1223);
#400=VERTEX_POINT('',#1225);
#401=VERTEX_POINT('',#1227);
#402=VERTEX_POINT('',#1231);
#403=VERTEX_POINT('',#1233);
#404=VERTEX_POINT('',#1237);
#405=VERTEX_POINT('',#1239);
#406=VERTEX_POINT('',#1243);
#407=VERTEX_POINT('',#1245);
#408=VERTEX_POINT('',#1247);
#409=VERTEX_POINT('',#1249);
#410=VERTEX_POINT('',#1252);
#411=VERTEX_POINT('',#1254);
#412=VERTEX_POINT('',#1256);
#413=VERTEX_POINT('',#1258);
#414=VERTEX_POINT('',#1260);
#415=VERTEX_POINT('',#1262);
#416=VERTEX_POINT('',#1264);
#417=VERTEX_POINT('',#1266);
#418=VERTEX_POINT('',#1269);
#419=VERTEX_POINT('',#1271);
#420=VERTEX_POINT('',#1273);
#421=VERTEX_POINT('',#1275);
#422=VERTEX_POINT('',#1277);
#423=VERTEX_POINT('',#1279);
#424=VERTEX_POINT('',#1281);
#425=VERTEX_POINT('',#1283);
#426=VERTEX_POINT('',#1286);
#427=VERTEX_POINT('',#1288);
#428=VERTEX_POINT('',#1292);
#429=VERTEX_POINT('',#1293);
#430=VERTEX_POINT('',#1295);
#431=VERTEX_POINT('',#1300);
#432=VERTEX_POINT('',#1302);
#433=VERTEX_POINT('',#1306);
#434=VERTEX_POINT('',#1315);
#435=VERTEX_POINT('',#1316);
#436=VERTEX_POINT('',#1318);
#437=VERTEX_POINT('',#1320);
#438=VERTEX_POINT('',#1323);
#439=VERTEX_POINT('',#1325);
#440=VERTEX_POINT('',#1327);
#441=VERTEX_POINT('',#1329);
#442=VERTEX_POINT('',#1331);
#443=VERTEX_POINT('',#1333);
#444=VERTEX_POINT('',#1335);
#445=VERTEX_POINT('',#1337);
#446=VERTEX_POINT('',#1340);
#447=VERTEX_POINT('',#1346);
#448=VERTEX_POINT('',#1352);
#449=VERTEX_POINT('',#1358);
#450=VERTEX_POINT('',#1364);
#451=VERTEX_POINT('',#1370);
#452=VERTEX_POINT('',#1376);
#453=VERTEX_POINT('',#1382);
#454=VERTEX_POINT('',#1388);
#455=VERTEX_POINT('',#1390);
#456=VERTEX_POINT('',#1394);
#457=VERTEX_POINT('',#1398);
#458=VERTEX_POINT('',#1404);
#459=VERTEX_POINT('',#1406);
#460=VERTEX_POINT('',#1410);
#461=VERTEX_POINT('',#1415);
#462=EDGE_CURVE('',#390,#390,#358,.T.);
#463=EDGE_CURVE('',#390,#391,#190,.T.);
#464=EDGE_CURVE('',#391,#391,#359,.T.);
#465=EDGE_CURVE('',#392,#392,#360,.T.);
#466=EDGE_CURVE('',#393,#393,#361,.T.);
#467=EDGE_CURVE('',#393,#394,#191,.T.);
#468=EDGE_CURVE('',#394,#394,#362,.T.);
#469=EDGE_CURVE('',#395,#395,#363,.T.);
#470=EDGE_CURVE('',#396,#396,#364,.T.);
#471=EDGE_CURVE('',#396,#395,#192,.T.);
#472=EDGE_CURVE('',#397,#397,#365,.T.);
#473=EDGE_CURVE('',#397,#392,#193,.T.);
#474=EDGE_CURVE('',#398,#399,#194,.T.);
#475=EDGE_CURVE('',#399,#400,#195,.T.);
#476=EDGE_CURVE('',#400,#401,#196,.T.);
#477=EDGE_CURVE('',#398,#401,#197,.T.);
#478=EDGE_CURVE('',#402,#399,#198,.T.);
#479=EDGE_CURVE('',#403,#402,#199,.T.);
#480=EDGE_CURVE('',#400,#403,#200,.T.);
#481=EDGE_CURVE('',#404,#403,#201,.T.);
#482=EDGE_CURVE('',#402,#405,#202,.T.);
#483=EDGE_CURVE('',#404,#405,#203,.T.);
#484=EDGE_CURVE('',#406,#401,#204,.T.);
#485=EDGE_CURVE('',#407,#406,#205,.T.);
#486=EDGE_CURVE('',#408,#407,#206,.T.);
#487=EDGE_CURVE('',#409,#408,#207,.T.);
#488=EDGE_CURVE('',#404,#409,#208,.T.);
#489=EDGE_CURVE('',#405,#410,#209,.T.);
#490=EDGE_CURVE('',#410,#411,#210,.T.);
#491=EDGE_CURVE('',#411,#412,#211,.T.);
#492=EDGE_CURVE('',#412,#413,#212,.T.);
#493=EDGE_CURVE('',#413,#414,#213,.T.);
#494=EDGE_CURVE('',#414,#415,#214,.T.);
#495=EDGE_CURVE('',#415,#416,#215,.T.);
#496=EDGE_CURVE('',#416,#417,#216,.T.);
#497=EDGE_CURVE('',#417,#398,#217,.T.);
#498=EDGE_CURVE('',#418,#418,#366,.T.);
#499=EDGE_CURVE('',#419,#419,#367,.T.);
#500=EDGE_CURVE('',#420,#420,#368,.T.);
#501=EDGE_CURVE('',#421,#421,#369,.T.);
#502=EDGE_CURVE('',#422,#422,#370,.T.);
#503=EDGE_CURVE('',#423,#423,#371,.T.);
#504=EDGE_CURVE('',#424,#424,#372,.T.);
#505=EDGE_CURVE('',#425,#425,#373,.T.);
#506=EDGE_CURVE('',#409,#426,#218,.T.);
#507=EDGE_CURVE('',#427,#426,#219,.T.);
#508=EDGE_CURVE('',#406,#427,#220,.T.);
#509=EDGE_CURVE('',#428,#429,#221,.T.);
#510=EDGE_CURVE('',#429,#430,#222,.T.);
#511=EDGE_CURVE('',#430,#427,#223,.T.);
#512=EDGE_CURVE('',#428,#427,#224,.T.);
#513=EDGE_CURVE('',#429,#431,#225,.T.);
#514=EDGE_CURVE('',#431,#432,#226,.T.);
#515=EDGE_CURVE('',#432,#430,#227,.T.);
#516=EDGE_CURVE('',#431,#433,#228,.T.);
#517=EDGE_CURVE('',#433,#426,#229,.T.);
#518=EDGE_CURVE('',#426,#432,#230,.T.);
#519=EDGE_CURVE('',#433,#428,#231,.T.);
#520=EDGE_CURVE('',#407,#430,#232,.T.);
#521=EDGE_CURVE('',#434,#435,#233,.T.);
#522=EDGE_CURVE('',#436,#434,#234,.T.);
#523=EDGE_CURVE('',#437,#436,#235,.T.);
#524=EDGE_CURVE('',#435,#437,#236,.T.);
#525=EDGE_CURVE('',#438,#438,#374,.T.);
#526=EDGE_CURVE('',#439,#439,#375,.T.);
#527=EDGE_CURVE('',#440,#440,#376,.T.);
#528=EDGE_CURVE('',#441,#441,#377,.T.);
#529=EDGE_CURVE('',#442,#442,#378,.T.);
#530=EDGE_CURVE('',#443,#443,#379,.T.);
#531=EDGE_CURVE('',#444,#444,#380,.T.);
#532=EDGE_CURVE('',#445,#445,#381,.T.);
#533=EDGE_CURVE('',#438,#446,#237,.T.);
#534=EDGE_CURVE('',#446,#446,#382,.T.);
#535=EDGE_CURVE('',#446,#422,#238,.T.);
#536=EDGE_CURVE('',#445,#447,#239,.T.);
#537=EDGE_CURVE('',#447,#447,#383,.T.);
#538=EDGE_CURVE('',#447,#421,#240,.T.);
#539=EDGE_CURVE('',#439,#448,#241,.T.);
#540=EDGE_CURVE('',#448,#448,#384,.T.);
#541=EDGE_CURVE('',#448,#418,#242,.T.);
#542=EDGE_CURVE('',#444,#449,#243,.T.);
#543=EDGE_CURVE('',#449,#449,#385,.T.);
#544=EDGE_CURVE('',#449,#425,#244,.T.);
#545=EDGE_CURVE('',#440,#450,#245,.T.);
#546=EDGE_CURVE('',#450,#450,#386,.T.);
#547=EDGE_CURVE('',#450,#423,#246,.T.);
#548=EDGE_CURVE('',#443,#451,#247,.T.);
#549=EDGE_CURVE('',#451,#451,#387,.T.);
#550=EDGE_CURVE('',#451,#419,#248,.T.);
#551=EDGE_CURVE('',#441,#452,#249,.T.);
#552=EDGE_CURVE('',#452,#452,#388,.T.);
#553=EDGE_CURVE('',#452,#420,#250,.T.);
#554=EDGE_CURVE('',#442,#453,#251,.T.);
#555=EDGE_CURVE('',#453,#453,#389,.T.);
#556=EDGE_CURVE('',#453,#424,#252,.T.);
#557=EDGE_CURVE('',#413,#454,#253,.T.);
#558=EDGE_CURVE('',#454,#455,#254,.T.);
#559=EDGE_CURVE('',#414,#455,#255,.T.);
#560=EDGE_CURVE('',#412,#456,#256,.T.);
#561=EDGE_CURVE('',#456,#454,#257,.T.);
#562=EDGE_CURVE('',#457,#411,#258,.T.);
#563=EDGE_CURVE('',#457,#456,#259,.T.);
#564=EDGE_CURVE('',#455,#457,#260,.T.);
#565=EDGE_CURVE('',#410,#458,#261,.T.);
#566=EDGE_CURVE('',#459,#458,#262,.T.);
#567=EDGE_CURVE('',#415,#459,#263,.T.);
#568=EDGE_CURVE('',#435,#460,#264,.T.);
#569=EDGE_CURVE('',#460,#459,#265,.T.);
#570=EDGE_CURVE('',#434,#459,#266,.T.);
#571=EDGE_CURVE('',#437,#461,#267,.T.);
#572=EDGE_CURVE('',#461,#460,#268,.T.);
#573=EDGE_CURVE('',#436,#458,#269,.T.);
#574=EDGE_CURVE('',#458,#461,#270,.T.);
#575=EDGE_CURVE('',#416,#460,#271,.T.);
#576=EDGE_CURVE('',#408,#432,#272,.T.);
#577=EDGE_CURVE('',#417,#461,#273,.T.);
#578=ORIENTED_EDGE('',*,*,#462,.F.);
#579=ORIENTED_EDGE('',*,*,#463,.T.);
#580=ORIENTED_EDGE('',*,*,#464,.T.);
#581=ORIENTED_EDGE('',*,*,#463,.F.);
#582=ORIENTED_EDGE('',*,*,#464,.F.);
#583=ORIENTED_EDGE('',*,*,#465,.F.);
#584=ORIENTED_EDGE('',*,*,#466,.F.);
#585=ORIENTED_EDGE('',*,*,#467,.T.);
#586=ORIENTED_EDGE('',*,*,#468,.T.);
#587=ORIENTED_EDGE('',*,*,#467,.F.);
#588=ORIENTED_EDGE('',*,*,#468,.F.);
#589=ORIENTED_EDGE('',*,*,#469,.F.);
#590=ORIENTED_EDGE('',*,*,#470,.F.);
#591=ORIENTED_EDGE('',*,*,#471,.T.);
#592=ORIENTED_EDGE('',*,*,#469,.T.);
#593=ORIENTED_EDGE('',*,*,#471,.F.);
#594=ORIENTED_EDGE('',*,*,#472,.F.);
#595=ORIENTED_EDGE('',*,*,#473,.T.);
#596=ORIENTED_EDGE('',*,*,#465,.T.);
#597=ORIENTED_EDGE('',*,*,#473,.F.);
#598=ORIENTED_EDGE('',*,*,#474,.T.);
#599=ORIENTED_EDGE('',*,*,#475,.T.);
#600=ORIENTED_EDGE('',*,*,#476,.T.);
#601=ORIENTED_EDGE('',*,*,#477,.F.);
#602=ORIENTED_EDGE('',*,*,#475,.F.);
#603=ORIENTED_EDGE('',*,*,#478,.F.);
#604=ORIENTED_EDGE('',*,*,#479,.F.);
#605=ORIENTED_EDGE('',*,*,#480,.F.);
#606=ORIENTED_EDGE('',*,*,#481,.T.);
#607=ORIENTED_EDGE('',*,*,#479,.T.);
#608=ORIENTED_EDGE('',*,*,#482,.T.);
#609=ORIENTED_EDGE('',*,*,#483,.F.);
#610=ORIENTED_EDGE('',*,*,#477,.T.);
#611=ORIENTED_EDGE('',*,*,#484,.F.);
#612=ORIENTED_EDGE('',*,*,#485,.F.);
#613=ORIENTED_EDGE('',*,*,#486,.F.);
#614=ORIENTED_EDGE('',*,*,#487,.F.);
#615=ORIENTED_EDGE('',*,*,#488,.F.);
#616=ORIENTED_EDGE('',*,*,#483,.T.);
#617=ORIENTED_EDGE('',*,*,#489,.T.);
#618=ORIENTED_EDGE('',*,*,#490,.T.);
#619=ORIENTED_EDGE('',*,*,#491,.T.);
#620=ORIENTED_EDGE('',*,*,#492,.T.);
#621=ORIENTED_EDGE('',*,*,#493,.T.);
#622=ORIENTED_EDGE('',*,*,#494,.T.);
#623=ORIENTED_EDGE('',*,*,#495,.T.);
#624=ORIENTED_EDGE('',*,*,#496,.T.);
#625=ORIENTED_EDGE('',*,*,#497,.T.);
#626=ORIENTED_EDGE('',*,*,#462,.T.);
#627=ORIENTED_EDGE('',*,*,#466,.T.);
#628=ORIENTED_EDGE('',*,*,#498,.T.);
#629=ORIENTED_EDGE('',*,*,#499,.T.);
#630=ORIENTED_EDGE('',*,*,#500,.T.);
#631=ORIENTED_EDGE('',*,*,#501,.T.);
#632=ORIENTED_EDGE('',*,*,#502,.T.);
#633=ORIENTED_EDGE('',*,*,#503,.T.);
#634=ORIENTED_EDGE('',*,*,#504,.T.);
#635=ORIENTED_EDGE('',*,*,#505,.T.);
#636=ORIENTED_EDGE('',*,*,#476,.F.);
#637=ORIENTED_EDGE('',*,*,#480,.T.);
#638=ORIENTED_EDGE('',*,*,#481,.F.);
#639=ORIENTED_EDGE('',*,*,#488,.T.);
#640=ORIENTED_EDGE('',*,*,#506,.T.);
#641=ORIENTED_EDGE('',*,*,#507,.F.);
#642=ORIENTED_EDGE('',*,*,#508,.F.);
#643=ORIENTED_EDGE('',*,*,#484,.T.);
#644=ORIENTED_EDGE('',*,*,#509,.T.);
#645=ORIENTED_EDGE('',*,*,#510,.T.);
#646=ORIENTED_EDGE('',*,*,#511,.T.);
#647=ORIENTED_EDGE('',*,*,#512,.F.);
#648=ORIENTED_EDGE('',*,*,#513,.T.);
#649=ORIENTED_EDGE('',*,*,#514,.T.);
#650=ORIENTED_EDGE('',*,*,#515,.T.);
#651=ORIENTED_EDGE('',*,*,#510,.F.);
#652=ORIENTED_EDGE('',*,*,#516,.T.);
#653=ORIENTED_EDGE('',*,*,#517,.T.);
#654=ORIENTED_EDGE('',*,*,#518,.T.);
#655=ORIENTED_EDGE('',*,*,#514,.F.);
#656=ORIENTED_EDGE('',*,*,#507,.T.);
#657=ORIENTED_EDGE('',*,*,#517,.F.);
#658=ORIENTED_EDGE('',*,*,#519,.T.);
#659=ORIENTED_EDGE('',*,*,#512,.T.);
#660=ORIENTED_EDGE('',*,*,#511,.F.);
#661=ORIENTED_EDGE('',*,*,#520,.F.);
#662=ORIENTED_EDGE('',*,*,#485,.T.);
#663=ORIENTED_EDGE('',*,*,#508,.T.);
#664=ORIENTED_EDGE('',*,*,#521,.F.);
#665=ORIENTED_EDGE('',*,*,#522,.F.);
#666=ORIENTED_EDGE('',*,*,#523,.F.);
#667=ORIENTED_EDGE('',*,*,#524,.F.);
#668=ORIENTED_EDGE('',*,*,#470,.T.);
#669=ORIENTED_EDGE('',*,*,#472,.T.);
#670=ORIENTED_EDGE('',*,*,#525,.F.);
#671=ORIENTED_EDGE('',*,*,#526,.F.);
#672=ORIENTED_EDGE('',*,*,#527,.F.);
#673=ORIENTED_EDGE('',*,*,#528,.F.);
#674=ORIENTED_EDGE('',*,*,#529,.F.);
#675=ORIENTED_EDGE('',*,*,#530,.F.);
#676=ORIENTED_EDGE('',*,*,#531,.F.);
#677=ORIENTED_EDGE('',*,*,#532,.F.);
#678=ORIENTED_EDGE('',*,*,#509,.F.);
#679=ORIENTED_EDGE('',*,*,#519,.F.);
#680=ORIENTED_EDGE('',*,*,#516,.F.);
#681=ORIENTED_EDGE('',*,*,#513,.F.);
#682=ORIENTED_EDGE('',*,*,#525,.T.);
#683=ORIENTED_EDGE('',*,*,#533,.T.);
#684=ORIENTED_EDGE('',*,*,#534,.T.);
#685=ORIENTED_EDGE('',*,*,#533,.F.);
#686=ORIENTED_EDGE('',*,*,#534,.F.);
#687=ORIENTED_EDGE('',*,*,#535,.T.);
#688=ORIENTED_EDGE('',*,*,#502,.F.);
#689=ORIENTED_EDGE('',*,*,#535,.F.);
#690=ORIENTED_EDGE('',*,*,#532,.T.);
#691=ORIENTED_EDGE('',*,*,#536,.T.);
#692=ORIENTED_EDGE('',*,*,#537,.T.);
#693=ORIENTED_EDGE('',*,*,#536,.F.);
#694=ORIENTED_EDGE('',*,*,#537,.F.);
#695=ORIENTED_EDGE('',*,*,#538,.T.);
#696=ORIENTED_EDGE('',*,*,#501,.F.);
#697=ORIENTED_EDGE('',*,*,#538,.F.);
#698=ORIENTED_EDGE('',*,*,#526,.T.);
#699=ORIENTED_EDGE('',*,*,#539,.T.);
#700=ORIENTED_EDGE('',*,*,#540,.T.);
#701=ORIENTED_EDGE('',*,*,#539,.F.);
#702=ORIENTED_EDGE('',*,*,#540,.F.);
#703=ORIENTED_EDGE('',*,*,#541,.T.);
#704=ORIENTED_EDGE('',*,*,#498,.F.);
#705=ORIENTED_EDGE('',*,*,#541,.F.);
#706=ORIENTED_EDGE('',*,*,#531,.T.);
#707=ORIENTED_EDGE('',*,*,#542,.T.);
#708=ORIENTED_EDGE('',*,*,#543,.T.);
#709=ORIENTED_EDGE('',*,*,#542,.F.);
#710=ORIENTED_EDGE('',*,*,#543,.F.);
#711=ORIENTED_EDGE('',*,*,#544,.T.);
#712=ORIENTED_EDGE('',*,*,#505,.F.);
#713=ORIENTED_EDGE('',*,*,#544,.F.);
#714=ORIENTED_EDGE('',*,*,#527,.T.);
#715=ORIENTED_EDGE('',*,*,#545,.T.);
#716=ORIENTED_EDGE('',*,*,#546,.T.);
#717=ORIENTED_EDGE('',*,*,#545,.F.);
#718=ORIENTED_EDGE('',*,*,#546,.F.);
#719=ORIENTED_EDGE('',*,*,#547,.T.);
#720=ORIENTED_EDGE('',*,*,#503,.F.);
#721=ORIENTED_EDGE('',*,*,#547,.F.);
#722=ORIENTED_EDGE('',*,*,#530,.T.);
#723=ORIENTED_EDGE('',*,*,#548,.T.);
#724=ORIENTED_EDGE('',*,*,#549,.T.);
#725=ORIENTED_EDGE('',*,*,#548,.F.);
#726=ORIENTED_EDGE('',*,*,#549,.F.);
#727=ORIENTED_EDGE('',*,*,#550,.T.);
#728=ORIENTED_EDGE('',*,*,#499,.F.);
#729=ORIENTED_EDGE('',*,*,#550,.F.);
#730=ORIENTED_EDGE('',*,*,#528,.T.);
#731=ORIENTED_EDGE('',*,*,#551,.T.);
#732=ORIENTED_EDGE('',*,*,#552,.T.);
#733=ORIENTED_EDGE('',*,*,#551,.F.);
#734=ORIENTED_EDGE('',*,*,#552,.F.);
#735=ORIENTED_EDGE('',*,*,#553,.T.);
#736=ORIENTED_EDGE('',*,*,#500,.F.);
#737=ORIENTED_EDGE('',*,*,#553,.F.);
#738=ORIENTED_EDGE('',*,*,#529,.T.);
#739=ORIENTED_EDGE('',*,*,#554,.T.);
#740=ORIENTED_EDGE('',*,*,#555,.T.);
#741=ORIENTED_EDGE('',*,*,#554,.F.);
#742=ORIENTED_EDGE('',*,*,#555,.F.);
#743=ORIENTED_EDGE('',*,*,#556,.T.);
#744=ORIENTED_EDGE('',*,*,#504,.F.);
#745=ORIENTED_EDGE('',*,*,#556,.F.);
#746=ORIENTED_EDGE('',*,*,#493,.F.);
#747=ORIENTED_EDGE('',*,*,#557,.T.);
#748=ORIENTED_EDGE('',*,*,#558,.T.);
#749=ORIENTED_EDGE('',*,*,#559,.F.);
#750=ORIENTED_EDGE('',*,*,#492,.F.);
#751=ORIENTED_EDGE('',*,*,#560,.T.);
#752=ORIENTED_EDGE('',*,*,#561,.T.);
#753=ORIENTED_EDGE('',*,*,#557,.F.);
#754=ORIENTED_EDGE('',*,*,#491,.F.);
#755=ORIENTED_EDGE('',*,*,#562,.F.);
#756=ORIENTED_EDGE('',*,*,#563,.T.);
#757=ORIENTED_EDGE('',*,*,#560,.F.);
#758=ORIENTED_EDGE('',*,*,#564,.F.);
#759=ORIENTED_EDGE('',*,*,#558,.F.);
#760=ORIENTED_EDGE('',*,*,#561,.F.);
#761=ORIENTED_EDGE('',*,*,#563,.F.);
#762=ORIENTED_EDGE('',*,*,#559,.T.);
#763=ORIENTED_EDGE('',*,*,#564,.T.);
#764=ORIENTED_EDGE('',*,*,#562,.T.);
#765=ORIENTED_EDGE('',*,*,#490,.F.);
#766=ORIENTED_EDGE('',*,*,#565,.T.);
#767=ORIENTED_EDGE('',*,*,#566,.F.);
#768=ORIENTED_EDGE('',*,*,#567,.F.);
#769=ORIENTED_EDGE('',*,*,#494,.F.);
#770=ORIENTED_EDGE('',*,*,#521,.T.);
#771=ORIENTED_EDGE('',*,*,#568,.T.);
#772=ORIENTED_EDGE('',*,*,#569,.T.);
#773=ORIENTED_EDGE('',*,*,#570,.F.);
#774=ORIENTED_EDGE('',*,*,#524,.T.);
#775=ORIENTED_EDGE('',*,*,#571,.T.);
#776=ORIENTED_EDGE('',*,*,#572,.T.);
#777=ORIENTED_EDGE('',*,*,#568,.F.);
#778=ORIENTED_EDGE('',*,*,#523,.T.);
#779=ORIENTED_EDGE('',*,*,#573,.T.);
#780=ORIENTED_EDGE('',*,*,#574,.T.);
#781=ORIENTED_EDGE('',*,*,#571,.F.);
#782=ORIENTED_EDGE('',*,*,#566,.T.);
#783=ORIENTED_EDGE('',*,*,#573,.F.);
#784=ORIENTED_EDGE('',*,*,#522,.T.);
#785=ORIENTED_EDGE('',*,*,#570,.T.);
#786=ORIENTED_EDGE('',*,*,#569,.F.);
#787=ORIENTED_EDGE('',*,*,#575,.F.);
#788=ORIENTED_EDGE('',*,*,#495,.F.);
#789=ORIENTED_EDGE('',*,*,#567,.T.);
#790=ORIENTED_EDGE('',*,*,#515,.F.);
#791=ORIENTED_EDGE('',*,*,#576,.F.);
#792=ORIENTED_EDGE('',*,*,#486,.T.);
#793=ORIENTED_EDGE('',*,*,#520,.T.);
#794=ORIENTED_EDGE('',*,*,#518,.F.);
#795=ORIENTED_EDGE('',*,*,#506,.F.);
#796=ORIENTED_EDGE('',*,*,#487,.T.);
#797=ORIENTED_EDGE('',*,*,#576,.T.);
#798=ORIENTED_EDGE('',*,*,#572,.F.);
#799=ORIENTED_EDGE('',*,*,#577,.F.);
#800=ORIENTED_EDGE('',*,*,#496,.F.);
#801=ORIENTED_EDGE('',*,*,#575,.T.);
#802=ORIENTED_EDGE('',*,*,#497,.F.);
#803=ORIENTED_EDGE('',*,*,#577,.T.);
#804=ORIENTED_EDGE('',*,*,#574,.F.);
#805=ORIENTED_EDGE('',*,*,#565,.F.);
#806=ORIENTED_EDGE('',*,*,#489,.F.);
#807=ORIENTED_EDGE('',*,*,#482,.F.);
#808=ORIENTED_EDGE('',*,*,#478,.T.);
#809=ORIENTED_EDGE('',*,*,#474,.F.);
#810=CYLINDRICAL_SURFACE('',#871,4.00000000000002);
#811=CYLINDRICAL_SURFACE('',#876,3.99999999999999);
#812=CYLINDRICAL_SURFACE('',#881,2.5);
#813=CYLINDRICAL_SURFACE('',#883,2.5);
#814=CYLINDRICAL_SURFACE('',#914,2.);
#815=CYLINDRICAL_SURFACE('',#917,1.99999999999999);
#816=CYLINDRICAL_SURFACE('',#920,2.);
#817=CYLINDRICAL_SURFACE('',#923,1.99999999999999);
#818=CYLINDRICAL_SURFACE('',#926,1.99999999999999);
#819=CYLINDRICAL_SURFACE('',#929,1.99999999999999);
#820=CYLINDRICAL_SURFACE('',#932,1.99999999999999);
#821=CYLINDRICAL_SURFACE('',#935,1.99999999999999);
#822=ADVANCED_FACE('',(#73),#810,.F.);
#823=ADVANCED_FACE('',(#74,#23),#46,.T.);
#824=ADVANCED_FACE('',(#75),#811,.F.);
#825=ADVANCED_FACE('',(#76,#24),#47,.T.);
#826=ADVANCED_FACE('',(#77),#812,.F.);
#827=ADVANCED_FACE('',(#78),#813,.F.);
#828=ADVANCED_FACE('',(#79),#48,.T.);
#829=ADVANCED_FACE('',(#80),#49,.F.);
#830=ADVANCED_FACE('',(#81),#50,.T.);
#831=ADVANCED_FACE('',(#82,#25,#26,#27,#28,#29,#30,#31,#32,#33,#34),#51,
 .F.);
#832=ADVANCED_FACE('',(#83),#52,.T.);
#833=ADVANCED_FACE('',(#84),#53,.T.);
#834=ADVANCED_FACE('',(#85),#54,.T.);
#835=ADVANCED_FACE('',(#86),#55,.T.);
#836=ADVANCED_FACE('',(#87),#56,.T.);
#837=ADVANCED_FACE('',(#88),#57,.T.);
#838=ADVANCED_FACE('',(#89,#35,#36,#37,#38,#39,#40,#41,#42,#43,#44,#45),
#58,.T.);
#839=ADVANCED_FACE('',(#90),#15,.F.);
#840=ADVANCED_FACE('',(#91),#814,.F.);
#841=ADVANCED_FACE('',(#92),#16,.F.);
#842=ADVANCED_FACE('',(#93),#815,.F.);
#843=ADVANCED_FACE('',(#94),#17,.F.);
#844=ADVANCED_FACE('',(#95),#816,.F.);
#845=ADVANCED_FACE('',(#96),#18,.F.);
#846=ADVANCED_FACE('',(#97),#817,.F.);
#847=ADVANCED_FACE('',(#98),#19,.F.);
#848=ADVANCED_FACE('',(#99),#818,.F.);
#849=ADVANCED_FACE('',(#100),#20,.F.);
#850=ADVANCED_FACE('',(#101),#819,.F.);
#851=ADVANCED_FACE('',(#102),#21,.F.);
#852=ADVANCED_FACE('',(#103),#820,.F.);
#853=ADVANCED_FACE('',(#104),#22,.F.);
#854=ADVANCED_FACE('',(#105),#821,.F.);
#855=ADVANCED_FACE('',(#106),#59,.F.);
#856=ADVANCED_FACE('',(#107),#60,.F.);
#857=ADVANCED_FACE('',(#108),#61,.F.);
#858=ADVANCED_FACE('',(#109),#62,.F.);
#859=ADVANCED_FACE('',(#110),#63,.T.);
#860=ADVANCED_FACE('',(#111),#64,.T.);
#861=ADVANCED_FACE('',(#112),#65,.T.);
#862=ADVANCED_FACE('',(#113),#66,.T.);
#863=ADVANCED_FACE('',(#114),#67,.T.);
#864=ADVANCED_FACE('',(#115),#68,.T.);
#865=ADVANCED_FACE('',(#116),#69,.T.);
#866=ADVANCED_FACE('',(#117),#70,.T.);
#867=ADVANCED_FACE('',(#118),#71,.T.);
#868=ADVANCED_FACE('',(#119),#72,.T.);
#869=CLOSED_SHELL('',(#822,#823,#824,#825,#826,#827,#828,#829,#830,#831,
#832,#833,#834,#835,#836,#837,#838,#839,#840,#841,#842,#843,#844,#845,#846,
#847,#848,#849,#850,#851,#852,#853,#854,#855,#856,#857,#858,#859,#860,#861,
#862,#863,#864,#865,#866,#867,#868));
#870=AXIS2_PLACEMENT_3D('',#1194,#950,#951);
#871=AXIS2_PLACEMENT_3D('',#1195,#952,#953);
#872=AXIS2_PLACEMENT_3D('',#1197,#954,#955);
#873=AXIS2_PLACEMENT_3D('',#1200,#957,#958);
#874=AXIS2_PLACEMENT_3D('',#1201,#959,#960);
#875=AXIS2_PLACEMENT_3D('',#1203,#961,#962);
#876=AXIS2_PLACEMENT_3D('',#1204,#963,#964);
#877=AXIS2_PLACEMENT_3D('',#1206,#965,#966);
#878=AXIS2_PLACEMENT_3D('',#1209,#968,#969);
#879=AXIS2_PLACEMENT_3D('',#1210,#970,#971);
#880=AXIS2_PLACEMENT_3D('',#1212,#972,#973);
#881=AXIS2_PLACEMENT_3D('',#1213,#974,#975);
#882=AXIS2_PLACEMENT_3D('',#1215,#976,#977);
#883=AXIS2_PLACEMENT_3D('',#1217,#979,#980);
#884=AXIS2_PLACEMENT_3D('',#1219,#981,#982);
#885=AXIS2_PLACEMENT_3D('',#1221,#984,#985);
#886=AXIS2_PLACEMENT_3D('',#1230,#990,#991);
#887=AXIS2_PLACEMENT_3D('',#1236,#995,#996);
#888=AXIS2_PLACEMENT_3D('',#1242,#1000,#1001);
#889=AXIS2_PLACEMENT_3D('',#1270,#1016,#1017);
#890=AXIS2_PLACEMENT_3D('',#1272,#1018,#1019);
#891=AXIS2_PLACEMENT_3D('',#1274,#1020,#1021);
#892=AXIS2_PLACEMENT_3D('',#1276,#1022,#1023);
#893=AXIS2_PLACEMENT_3D('',#1278,#1024,#1025);
#894=AXIS2_PLACEMENT_3D('',#1280,#1026,#1027);
#895=AXIS2_PLACEMENT_3D('',#1282,#1028,#1029);
#896=AXIS2_PLACEMENT_3D('',#1284,#1030,#1031);
#897=AXIS2_PLACEMENT_3D('',#1285,#1032,#1033);
#898=AXIS2_PLACEMENT_3D('',#1291,#1037,#1038);
#899=AXIS2_PLACEMENT_3D('',#1299,#1043,#1044);
#900=AXIS2_PLACEMENT_3D('',#1305,#1048,#1049);
#901=AXIS2_PLACEMENT_3D('',#1310,#1053,#1054);
#902=AXIS2_PLACEMENT_3D('',#1312,#1056,#1057);
#903=AXIS2_PLACEMENT_3D('',#1314,#1059,#1060);
#904=AXIS2_PLACEMENT_3D('',#1324,#1065,#1066);
#905=AXIS2_PLACEMENT_3D('',#1326,#1067,#1068);
#906=AXIS2_PLACEMENT_3D('',#1328,#1069,#1070);
#907=AXIS2_PLACEMENT_3D('',#1330,#1071,#1072);
#908=AXIS2_PLACEMENT_3D('',#1332,#1073,#1074);
#909=AXIS2_PLACEMENT_3D('',#1334,#1075,#1076);
#910=AXIS2_PLACEMENT_3D('',#1336,#1077,#1078);
#911=AXIS2_PLACEMENT_3D('',#1338,#1079,#1080);
#912=AXIS2_PLACEMENT_3D('',#1339,#1081,#1082);
#913=AXIS2_PLACEMENT_3D('',#1342,#1084,#1085);
#914=AXIS2_PLACEMENT_3D('',#1343,#1086,#1087);
#915=AXIS2_PLACEMENT_3D('',#1345,#1089,#1090);
#916=AXIS2_PLACEMENT_3D('',#1348,#1092,#1093);
#917=AXIS2_PLACEMENT_3D('',#1349,#1094,#1095);
#918=AXIS2_PLACEMENT_3D('',#1351,#1097,#1098);
#919=AXIS2_PLACEMENT_3D('',#1354,#1100,#1101);
#920=AXIS2_PLACEMENT_3D('',#1355,#1102,#1103);
#921=AXIS2_PLACEMENT_3D('',#1357,#1105,#1106);
#922=AXIS2_PLACEMENT_3D('',#1360,#1108,#1109);
#923=AXIS2_PLACEMENT_3D('',#1361,#1110,#1111);
#924=AXIS2_PLACEMENT_3D('',#1363,#1113,#1114);
#925=AXIS2_PLACEMENT_3D('',#1366,#1116,#1117);
#926=AXIS2_PLACEMENT_3D('',#1367,#1118,#1119);
#927=AXIS2_PLACEMENT_3D('',#1369,#1121,#1122);
#928=AXIS2_PLACEMENT_3D('',#1372,#1124,#1125);
#929=AXIS2_PLACEMENT_3D('',#1373,#1126,#1127);
#930=AXIS2_PLACEMENT_3D('',#1375,#1129,#1130);
#931=AXIS2_PLACEMENT_3D('',#1378,#1132,#1133);
#932=AXIS2_PLACEMENT_3D('',#1379,#1134,#1135);
#933=AXIS2_PLACEMENT_3D('',#1381,#1137,#1138);
#934=AXIS2_PLACEMENT_3D('',#1384,#1140,#1141);
#935=AXIS2_PLACEMENT_3D('',#1385,#1142,#1143);
#936=AXIS2_PLACEMENT_3D('',#1387,#1145,#1146);
#937=AXIS2_PLACEMENT_3D('',#1393,#1150,#1151);
#938=AXIS2_PLACEMENT_3D('',#1397,#1154,#1155);
#939=AXIS2_PLACEMENT_3D('',#1401,#1158,#1159);
#940=AXIS2_PLACEMENT_3D('',#1403,#1161,#1162);
#941=AXIS2_PLACEMENT_3D('',#1409,#1166,#1167);
#942=AXIS2_PLACEMENT_3D('',#1414,#1171,#1172);
#943=AXIS2_PLACEMENT_3D('',#1418,#1175,#1176);
#944=AXIS2_PLACEMENT_3D('',#1421,#1179,#1180);
#945=AXIS2_PLACEMENT_3D('',#1422,#1181,#1182);
#946=AXIS2_PLACEMENT_3D('',#1424,#1184,#1185);
#947=AXIS2_PLACEMENT_3D('',#1426,#1187,#1188);
#948=AXIS2_PLACEMENT_3D('',#1427,#1189,#1190);
#949=AXIS2_PLACEMENT_3D('',#1429,#1192,#1193);
#950=DIRECTION('axis',(0.,0.,1.));
#951=DIRECTION('refdir',(1.,0.,0.));
#952=DIRECTION('center_axis',(0.,0.,1.));
#953=DIRECTION('ref_axis',(1.,0.,0.));
#954=DIRECTION('center_axis',(0.,0.,1.));
#955=DIRECTION('ref_axis',(1.,0.,0.));
#956=DIRECTION('',(0.,0.,1.));
#957=DIRECTION('center_axis',(0.,0.,1.));
#958=DIRECTION('ref_axis',(1.,0.,0.));
#959=DIRECTION('center_axis',(0.,0.,-1.));
#960=DIRECTION('ref_axis',(1.,0.,0.));
#961=DIRECTION('center_axis',(0.,0.,-1.));
#962=DIRECTION('ref_axis',(-1.,0.,0.));
#963=DIRECTION('center_axis',(0.,0.,1.));
#964=DIRECTION('ref_axis',(1.,0.,0.));
#965=DIRECTION('center_axis',(0.,0.,1.));
#966=DIRECTION('ref_axis',(1.,0.,0.));
#967=DIRECTION('',(0.,0.,1.));
#968=DIRECTION('center_axis',(0.,0.,1.));
#969=DIRECTION('ref_axis',(1.,0.,0.));
#970=DIRECTION('center_axis',(0.,0.,-1.));
#971=DIRECTION('ref_axis',(1.,0.,0.));
#972=DIRECTION('center_axis',(0.,0.,-1.));
#973=DIRECTION('ref_axis',(-1.,0.,0.));
#974=DIRECTION('center_axis',(0.,0.,-1.));
#975=DIRECTION('ref_axis',(-1.,0.,0.));
#976=DIRECTION('center_axis',(0.,0.,-1.));
#977=DIRECTION('ref_axis',(-1.,0.,0.));
#978=DIRECTION('',(0.,0.,-1.));
#979=DIRECTION('center_axis',(0.,0.,-1.));
#980=DIRECTION('ref_axis',(-1.,0.,0.));
#981=DIRECTION('center_axis',(0.,0.,-1.));
#982=DIRECTION('ref_axis',(-1.,0.,0.));
#983=DIRECTION('',(0.,0.,-1.));
#984=DIRECTION('center_axis',(-0.707106781186547,0.,-0.707106781186548));
#985=DIRECTION('ref_axis',(-0.707106781186548,0.,0.707106781186547));
#986=DIRECTION('',(-0.707106781186548,-3.6799042000401E-17,0.707106781186547));
#987=DIRECTION('',(0.,1.,0.));
#988=DIRECTION('',(0.707106781186548,0.,-0.707106781186547));
#989=DIRECTION('',(0.,1.,0.));
#990=DIRECTION('center_axis',(0.,0.,1.));
#991=DIRECTION('ref_axis',(1.,0.,0.));
#992=DIRECTION('',(1.,5.20417042793042E-17,0.));
#993=DIRECTION('',(0.,-1.,0.));
#994=DIRECTION('',(-1.,0.,0.));
#995=DIRECTION('center_axis',(0.707106781186547,0.,-0.707106781186548));
#996=DIRECTION('ref_axis',(-0.707106781186548,0.,-0.707106781186547));
#997=DIRECTION('',(0.707106781186548,0.,0.707106781186547));
#998=DIRECTION('',(-0.707106781186548,-3.6799042000401E-17,-0.707106781186547));
#999=DIRECTION('',(0.,-1.,0.));
#1000=DIRECTION('center_axis',(0.,0.,1.));
#1001=DIRECTION('ref_axis',(1.,0.,0.));
#1002=DIRECTION('',(-1.,0.,0.));
#1003=DIRECTION('',(0.,-1.,0.));
#1004=DIRECTION('',(1.,-4.09298810921717E-17,0.));
#1005=DIRECTION('',(1.67580833905684E-16,1.,0.));
#1006=DIRECTION('',(-1.,0.,0.));
#1007=DIRECTION('',(-1.,-5.20417042793042E-17,0.));
#1008=DIRECTION('',(-7.37064730237257E-16,1.,0.));
#1009=DIRECTION('',(1.,0.,0.));
#1010=DIRECTION('',(0.,1.,0.));
#1011=DIRECTION('',(-1.,0.,0.));
#1012=DIRECTION('',(-7.37064730237257E-16,1.,0.));
#1013=DIRECTION('',(1.,0.,0.));
#1014=DIRECTION('',(-7.89491928622334E-16,-1.,0.));
#1015=DIRECTION('',(-1.,-5.20417042793042E-17,0.));
#1016=DIRECTION('center_axis',(0.,0.,1.));
#1017=DIRECTION('ref_axis',(-1.,0.,0.));
#1018=DIRECTION('center_axis',(0.,0.,1.));
#1019=DIRECTION('ref_axis',(-1.,0.,0.));
#1020=DIRECTION('center_axis',(0.,0.,1.));
#1021=DIRECTION('ref_axis',(-1.,0.,0.));
#1022=DIRECTION('center_axis',(0.,0.,1.));
#1023=DIRECTION('ref_axis',(-1.,0.,0.));
#1024=DIRECTION('center_axis',(0.,0.,1.));
#1025=DIRECTION('ref_axis',(-1.,0.,0.));
#1026=DIRECTION('center_axis',(0.,0.,1.));
#1027=DIRECTION('ref_axis',(-1.,0.,0.));
#1028=DIRECTION('center_axis',(0.,0.,1.));
#1029=DIRECTION('ref_axis',(-1.,0.,0.));
#1030=DIRECTION('center_axis',(0.,0.,1.));
#1031=DIRECTION('ref_axis',(-1.,0.,0.));
#1032=DIRECTION('center_axis',(0.,1.,0.));
#1033=DIRECTION('ref_axis',(-1.,0.,0.));
#1034=DIRECTION('',(0.,0.,1.));
#1035=DIRECTION('',(-1.,0.,0.));
#1036=DIRECTION('',(0.,0.,1.));
#1037=DIRECTION('center_axis',(-0.707106781186543,0.,0.707106781186552));
#1038=DIRECTION('ref_axis',(0.707106781186552,0.,0.707106781186543));
#1039=DIRECTION('',(0.,1.,0.));
#1040=DIRECTION('',(-0.577350269189632,-0.577350269189622,-0.577350269189624));
#1041=DIRECTION('',(0.,-1.,0.));
#1042=DIRECTION('',(-0.577350269189632,0.577350269189622,-0.577350269189624));
#1043=DIRECTION('center_axis',(-2.89417964734337E-17,-0.707106781186549,
0.707106781186546));
#1044=DIRECTION('ref_axis',(1.,0.,4.09298810921718E-17));
#1045=DIRECTION('',(-1.,4.09298810921717E-17,0.));
#1046=DIRECTION('',(0.577350269189623,-0.577350269189626,-0.577350269189628));
#1047=DIRECTION('',(1.,-4.09298810921717E-17,0.));
#1048=DIRECTION('center_axis',(0.707106781186549,-1.18497544051606E-16,
0.707106781186546));
#1049=DIRECTION('ref_axis',(0.707106781186546,0.,-0.707106781186549));
#1050=DIRECTION('',(-1.67580833905684E-16,-1.,0.));
#1051=DIRECTION('',(0.577350269189623,0.577350269189626,-0.577350269189628));
#1052=DIRECTION('',(1.67580833905684E-16,1.,0.));
#1053=DIRECTION('center_axis',(0.,0.707106781186549,0.707106781186546));
#1054=DIRECTION('ref_axis',(1.,0.,0.));
#1055=DIRECTION('',(1.,0.,0.));
#1056=DIRECTION('center_axis',(-1.,0.,0.));
#1057=DIRECTION('ref_axis',(0.,-1.,0.));
#1058=DIRECTION('',(0.,0.,1.));
#1059=DIRECTION('center_axis',(0.,0.,1.));
#1060=DIRECTION('ref_axis',(1.,0.,0.));
#1061=DIRECTION('',(1.,0.,0.));
#1062=DIRECTION('',(-7.37064730237257E-16,1.,0.));
#1063=DIRECTION('',(-1.,-5.20417042793042E-17,0.));
#1064=DIRECTION('',(-7.89491928622334E-16,-1.,0.));
#1065=DIRECTION('center_axis',(0.,0.,1.));
#1066=DIRECTION('ref_axis',(-1.,0.,0.));
#1067=DIRECTION('center_axis',(0.,0.,1.));
#1068=DIRECTION('ref_axis',(-1.,0.,0.));
#1069=DIRECTION('center_axis',(0.,0.,1.));
#1070=DIRECTION('ref_axis',(-1.,0.,0.));
#1071=DIRECTION('center_axis',(0.,0.,1.));
#1072=DIRECTION('ref_axis',(-1.,0.,0.));
#1073=DIRECTION('center_axis',(0.,0.,1.));
#1074=DIRECTION('ref_axis',(-1.,0.,0.));
#1075=DIRECTION('center_axis',(0.,0.,1.));
#1076=DIRECTION('ref_axis',(-1.,0.,0.));
#1077=DIRECTION('center_axis',(0.,0.,1.));
#1078=DIRECTION('ref_axis',(-1.,0.,0.));
#1079=DIRECTION('center_axis',(0.,0.,1.));
#1080=DIRECTION('ref_axis',(-1.,0.,0.));
#1081=DIRECTION('center_axis',(0.,0.,1.));
#1082=DIRECTION('ref_axis',(-1.,0.,0.));
#1083=DIRECTION('',(-0.707106781186547,-8.65956056235493E-17,-0.707106781186548));
#1084=DIRECTION('center_axis',(0.,0.,-1.));
#1085=DIRECTION('ref_axis',(-1.,0.,0.));
#1086=DIRECTION('center_axis',(0.,0.,-1.));
#1087=DIRECTION('ref_axis',(-1.,0.,0.));
#1088=DIRECTION('',(0.,0.,-1.));
#1089=DIRECTION('center_axis',(0.,0.,1.));
#1090=DIRECTION('ref_axis',(-1.,0.,0.));
#1091=DIRECTION('',(-0.707106781186552,-8.65956056235499E-17,-0.707106781186543));
#1092=DIRECTION('center_axis',(0.,0.,-1.));
#1093=DIRECTION('ref_axis',(-1.,0.,0.));
#1094=DIRECTION('center_axis',(0.,0.,-1.));
#1095=DIRECTION('ref_axis',(-1.,0.,0.));
#1096=DIRECTION('',(0.,0.,-1.));
#1097=DIRECTION('center_axis',(0.,0.,1.));
#1098=DIRECTION('ref_axis',(-1.,0.,0.));
#1099=DIRECTION('',(-0.707106781186547,-8.65956056235493E-17,-0.707106781186548));
#1100=DIRECTION('center_axis',(0.,0.,-1.));
#1101=DIRECTION('ref_axis',(-1.,0.,0.));
#1102=DIRECTION('center_axis',(0.,0.,-1.));
#1103=DIRECTION('ref_axis',(-1.,0.,0.));
#1104=DIRECTION('',(0.,0.,-1.));
#1105=DIRECTION('center_axis',(0.,0.,1.));
#1106=DIRECTION('ref_axis',(-1.,0.,0.));
#1107=DIRECTION('',(-0.707106781186552,-8.65956056235499E-17,-0.707106781186543));
#1108=DIRECTION('center_axis',(0.,0.,-1.));
#1109=DIRECTION('ref_axis',(-1.,0.,0.));
#1110=DIRECTION('center_axis',(0.,0.,-1.));
#1111=DIRECTION('ref_axis',(-1.,0.,0.));
#1112=DIRECTION('',(0.,0.,-1.));
#1113=DIRECTION('center_axis',(0.,0.,1.));
#1114=DIRECTION('ref_axis',(-1.,0.,0.));
#1115=DIRECTION('',(-0.707106781186552,-8.65956056235499E-17,-0.707106781186543));
#1116=DIRECTION('center_axis',(0.,0.,-1.));
#1117=DIRECTION('ref_axis',(-1.,0.,0.));
#1118=DIRECTION('center_axis',(0.,0.,-1.));
#1119=DIRECTION('ref_axis',(-1.,0.,0.));
#1120=DIRECTION('',(0.,0.,-1.));
#1121=DIRECTION('center_axis',(0.,0.,1.));
#1122=DIRECTION('ref_axis',(-1.,0.,0.));
#1123=DIRECTION('',(-0.707106781186552,-8.65956056235499E-17,-0.707106781186543));
#1124=DIRECTION('center_axis',(0.,0.,-1.));
#1125=DIRECTION('ref_axis',(-1.,0.,0.));
#1126=DIRECTION('center_axis',(0.,0.,-1.));
#1127=DIRECTION('ref_axis',(-1.,0.,0.));
#1128=DIRECTION('',(0.,0.,-1.));
#1129=DIRECTION('center_axis',(0.,0.,1.));
#1130=DIRECTION('ref_axis',(-1.,0.,0.));
#1131=DIRECTION('',(-0.707106781186552,-8.65956056235499E-17,-0.707106781186543));
#1132=DIRECTION('center_axis',(0.,0.,-1.));
#1133=DIRECTION('ref_axis',(-1.,0.,0.));
#1134=DIRECTION('center_axis',(0.,0.,-1.));
#1135=DIRECTION('ref_axis',(-1.,0.,0.));
#1136=DIRECTION('',(0.,0.,-1.));
#1137=DIRECTION('center_axis',(0.,0.,1.));
#1138=DIRECTION('ref_axis',(-1.,0.,0.));
#1139=DIRECTION('',(-0.707106781186552,-8.65956056235499E-17,-0.707106781186543));
#1140=DIRECTION('center_axis',(0.,0.,-1.));
#1141=DIRECTION('ref_axis',(-1.,0.,0.));
#1142=DIRECTION('center_axis',(0.,0.,-1.));
#1143=DIRECTION('ref_axis',(-1.,0.,0.));
#1144=DIRECTION('',(0.,0.,-1.));
#1145=DIRECTION('center_axis',(0.,1.,0.));
#1146=DIRECTION('ref_axis',(-1.,0.,0.));
#1147=DIRECTION('',(0.,0.,1.));
#1148=DIRECTION('',(-1.,0.,0.));
#1149=DIRECTION('',(0.,0.,1.));
#1150=DIRECTION('center_axis',(1.,0.,0.));
#1151=DIRECTION('ref_axis',(0.,1.,0.));
#1152=DIRECTION('',(0.,0.,1.));
#1153=DIRECTION('',(0.,1.,0.));
#1154=DIRECTION('center_axis',(0.,-1.,0.));
#1155=DIRECTION('ref_axis',(1.,0.,0.));
#1156=DIRECTION('',(0.,0.,-1.));
#1157=DIRECTION('',(1.,0.,0.));
#1158=DIRECTION('center_axis',(0.,0.,1.));
#1159=DIRECTION('ref_axis',(1.,0.,0.));
#1160=DIRECTION('',(7.37064730237257E-16,-1.,0.));
#1161=DIRECTION('center_axis',(-1.,-7.37064730237257E-16,0.));
#1162=DIRECTION('ref_axis',(7.37064730237257E-16,-1.,0.));
#1163=DIRECTION('',(0.,0.,1.));
#1164=DIRECTION('',(7.37064730237257E-16,-1.,0.));
#1165=DIRECTION('',(0.,0.,1.));
#1166=DIRECTION('center_axis',(0.,0.707106781186549,0.707106781186546));
#1167=DIRECTION('ref_axis',(1.,0.,0.));
#1168=DIRECTION('',(0.577350269189632,0.577350269189622,-0.577350269189624));
#1169=DIRECTION('',(-1.,0.,0.));
#1170=DIRECTION('',(-0.577350269189628,0.577350269189624,-0.577350269189626));
#1171=DIRECTION('center_axis',(0.707106781186543,-5.58255096420894E-16,
0.707106781186552));
#1172=DIRECTION('ref_axis',(0.707106781186552,0.,-0.707106781186543));
#1173=DIRECTION('',(0.577350269189632,-0.577350269189622,-0.577350269189624));
#1174=DIRECTION('',(7.89491928622334E-16,1.,0.));
#1175=DIRECTION('center_axis',(3.6799042000401E-17,-0.707106781186548,0.707106781186548));
#1176=DIRECTION('ref_axis',(1.,0.,-5.20417042793042E-17));
#1177=DIRECTION('',(-0.577350269189627,-0.577350269189625,-0.577350269189625));
#1178=DIRECTION('',(1.,5.20417042793042E-17,0.));
#1179=DIRECTION('center_axis',(-0.707106781186547,-5.21183468924197E-16,
0.707106781186549));
#1180=DIRECTION('ref_axis',(0.707106781186548,0.,0.707106781186546));
#1181=DIRECTION('center_axis',(0.,1.,0.));
#1182=DIRECTION('ref_axis',(-1.,0.,0.));
#1183=DIRECTION('',(0.,0.,1.));
#1184=DIRECTION('center_axis',(-4.09298810921717E-17,-1.,0.));
#1185=DIRECTION('ref_axis',(1.,-4.09298810921717E-17,0.));
#1186=DIRECTION('',(0.,0.,1.));
#1187=DIRECTION('center_axis',(1.,-1.67580833905684E-16,0.));
#1188=DIRECTION('ref_axis',(1.67580833905684E-16,1.,0.));
#1189=DIRECTION('center_axis',(1.,-7.89491928622334E-16,0.));
#1190=DIRECTION('ref_axis',(7.89491928622334E-16,1.,0.));
#1191=DIRECTION('',(0.,0.,1.));
#1192=DIRECTION('center_axis',(5.20417042793042E-17,-1.,0.));
#1193=DIRECTION('ref_axis',(1.,5.20417042793042E-17,0.));
#1194=CARTESIAN_POINT('',(0.,0.,0.));
#1195=CARTESIAN_POINT('Origin',(243.815,38.735,5.));
#1196=CARTESIAN_POINT('',(239.815,38.735,5.));
#1197=CARTESIAN_POINT('Origin',(243.815,38.735,5.));
#1198=CARTESIAN_POINT('',(239.815,38.735,8.));
#1199=CARTESIAN_POINT('',(239.815,38.735,5.));
#1200=CARTESIAN_POINT('Origin',(243.815,38.735,8.));
#1201=CARTESIAN_POINT('Origin',(243.815,38.735,8.));
#1202=CARTESIAN_POINT('',(246.315,38.735,8.));
#1203=CARTESIAN_POINT('Origin',(243.815,38.735,8.));
#1204=CARTESIAN_POINT('Origin',(243.815,56.515,5.));
#1205=CARTESIAN_POINT('',(239.815,56.515,5.));
#1206=CARTESIAN_POINT('Origin',(243.815,56.515,5.));
#1207=CARTESIAN_POINT('',(239.815,56.515,8.));
#1208=CARTESIAN_POINT('',(239.815,56.515,5.));
#1209=CARTESIAN_POINT('Origin',(243.815,56.515,8.));
#1210=CARTESIAN_POINT('Origin',(243.815,56.515,8.));
#1211=CARTESIAN_POINT('',(246.315,56.515,8.));
#1212=CARTESIAN_POINT('Origin',(243.815,56.515,8.));
#1213=CARTESIAN_POINT('Origin',(243.815,56.515,10.));
#1214=CARTESIAN_POINT('',(246.315,56.515,10.));
#1215=CARTESIAN_POINT('Origin',(243.815,56.515,10.));
#1216=CARTESIAN_POINT('',(246.315,56.515,10.));
#1217=CARTESIAN_POINT('Origin',(243.815,38.735,10.));
#1218=CARTESIAN_POINT('',(246.315,38.735,10.));
#1219=CARTESIAN_POINT('Origin',(243.815,38.735,10.));
#1220=CARTESIAN_POINT('',(246.315,38.735,10.));
#1221=CARTESIAN_POINT('Origin',(116.32,27.297,6.5));
#1222=CARTESIAN_POINT('',(117.82,24.9345,5.));
#1223=CARTESIAN_POINT('',(114.82,24.9345,8.));
#1224=CARTESIAN_POINT('',(87.3649999999999,24.9345,35.455));
#1225=CARTESIAN_POINT('',(114.82,34.3845,8.));
#1226=CARTESIAN_POINT('',(114.82,27.297,8.));
#1227=CARTESIAN_POINT('',(117.82,34.3845,5.));
#1228=CARTESIAN_POINT('',(146.49,34.3845,-23.67));
#1229=CARTESIAN_POINT('',(117.82,36.1845,5.));
#1230=CARTESIAN_POINT('Origin',(102.82,29.6595,8.));
#1231=CARTESIAN_POINT('',(90.82,24.9345,8.));
#1232=CARTESIAN_POINT('',(50.91,24.9345,8.));
#1233=CARTESIAN_POINT('',(90.82,34.3845,8.));
#1234=CARTESIAN_POINT('',(90.82,32.022,8.));
#1235=CARTESIAN_POINT('',(169.16,34.3845,8.));
#1236=CARTESIAN_POINT('Origin',(89.32,32.022,6.5));
#1237=CARTESIAN_POINT('',(87.82,34.3845,5.));
#1238=CARTESIAN_POINT('',(125.49,34.3845,42.67));
#1239=CARTESIAN_POINT('',(87.82,24.9345,5.));
#1240=CARTESIAN_POINT('',(66.365,24.9345,-16.455));
#1241=CARTESIAN_POINT('',(87.82,40.9095,5.));
#1242=CARTESIAN_POINT('Origin',(127.,47.4345,5.));
#1243=CARTESIAN_POINT('',(235.5,34.3845,5.));
#1244=CARTESIAN_POINT('',(18.5,34.3845,5.));
#1245=CARTESIAN_POINT('',(235.5,60.8845,5.));
#1246=CARTESIAN_POINT('',(235.5,34.3845,5.));
#1247=CARTESIAN_POINT('',(18.5,60.8845,5.));
#1248=CARTESIAN_POINT('',(235.5,60.8845,5.));
#1249=CARTESIAN_POINT('',(18.5,34.3845,5.));
#1250=CARTESIAN_POINT('',(18.5,60.8845,5.));
#1251=CARTESIAN_POINT('',(18.5,34.3845,5.));
#1252=CARTESIAN_POINT('',(-1.00000000000001,24.9345,5.));
#1253=CARTESIAN_POINT('',(255.,24.9345,5.));
#1254=CARTESIAN_POINT('',(-1.00000000000004,42.4345,5.));
#1255=CARTESIAN_POINT('',(-1.00000000000001,24.9345,5.));
#1256=CARTESIAN_POINT('',(8.99999999999996,42.4345,5.));
#1257=CARTESIAN_POINT('',(63.,42.4345,5.));
#1258=CARTESIAN_POINT('',(8.99999999999996,52.4345,5.));
#1259=CARTESIAN_POINT('',(8.99999999999997,44.9345,5.));
#1260=CARTESIAN_POINT('',(-1.00000000000004,52.4345,5.));
#1261=CARTESIAN_POINT('',(68.,52.4345,5.));
#1262=CARTESIAN_POINT('',(-1.00000000000004,69.9345,5.));
#1263=CARTESIAN_POINT('',(-1.00000000000001,24.9345,5.));
#1264=CARTESIAN_POINT('',(255.,69.9345,5.));
#1265=CARTESIAN_POINT('',(-1.00000000000004,69.9345,5.));
#1266=CARTESIAN_POINT('',(255.,24.9345,5.));
#1267=CARTESIAN_POINT('',(255.,69.9345,5.));
#1268=CARTESIAN_POINT('',(255.,24.9345,5.));
#1269=CARTESIAN_POINT('',(5.81,29.337,5.));
#1270=CARTESIAN_POINT('Origin',(3.81,29.337,5.));
#1271=CARTESIAN_POINT('',(172.18,29.337,5.));
#1272=CARTESIAN_POINT('Origin',(170.18,29.337,5.));
#1273=CARTESIAN_POINT('',(252.19,65.532,5.));
#1274=CARTESIAN_POINT('Origin',(250.19,65.532,5.));
#1275=CARTESIAN_POINT('',(85.82,65.532,5.));
#1276=CARTESIAN_POINT('Origin',(83.82,65.532,5.));
#1277=CARTESIAN_POINT('',(5.81,65.532,5.));
#1278=CARTESIAN_POINT('Origin',(3.81,65.532,5.));
#1279=CARTESIAN_POINT('',(172.18,65.532,5.));
#1280=CARTESIAN_POINT('Origin',(170.18,65.532,5.));
#1281=CARTESIAN_POINT('',(252.19,29.337,5.));
#1282=CARTESIAN_POINT('Origin',(250.19,29.337,5.));
#1283=CARTESIAN_POINT('',(85.82,29.337,5.));
#1284=CARTESIAN_POINT('Origin',(83.82,29.337,5.));
#1285=CARTESIAN_POINT('Origin',(235.5,34.3845,5.));
#1286=CARTESIAN_POINT('',(18.5,34.3845,9.5));
#1287=CARTESIAN_POINT('',(18.5,34.3845,5.));
#1288=CARTESIAN_POINT('',(235.5,34.3845,9.5));
#1289=CARTESIAN_POINT('',(181.25,34.3845,9.5));
#1290=CARTESIAN_POINT('',(235.5,34.3845,5.));
#1291=CARTESIAN_POINT('Origin',(235.75,54.1595,9.75));
#1292=CARTESIAN_POINT('',(236.,33.8845,10.));
#1293=CARTESIAN_POINT('',(236.,61.3845,10.));
#1294=CARTESIAN_POINT('',(236.,54.1595,10.));
#1295=CARTESIAN_POINT('',(235.5,60.8845,9.5));
#1296=CARTESIAN_POINT('',(236.,61.3845,10.));
#1297=CARTESIAN_POINT('',(235.5,54.1595,9.5));
#1298=CARTESIAN_POINT('',(236.,33.8845,10.));
#1299=CARTESIAN_POINT('Origin',(72.75,61.1345,9.75));
#1300=CARTESIAN_POINT('',(18.,61.3845,10.));
#1301=CARTESIAN_POINT('',(72.75,61.3845,10.));
#1302=CARTESIAN_POINT('',(18.5,60.8845,9.5));
#1303=CARTESIAN_POINT('',(18.,61.3845,10.));
#1304=CARTESIAN_POINT('',(72.75,60.8845,9.5));
#1305=CARTESIAN_POINT('Origin',(18.25,40.9095,9.75));
#1306=CARTESIAN_POINT('',(18.,33.8845,10.));
#1307=CARTESIAN_POINT('',(18.,40.9095,10.));
#1308=CARTESIAN_POINT('',(18.,33.8845,10.));
#1309=CARTESIAN_POINT('',(18.5,40.9095,9.5));
#1310=CARTESIAN_POINT('Origin',(181.25,34.1345,9.75));
#1311=CARTESIAN_POINT('',(181.25,33.8845,10.));
#1312=CARTESIAN_POINT('Origin',(235.5,60.8845,5.));
#1313=CARTESIAN_POINT('',(235.5,60.8845,5.));
#1314=CARTESIAN_POINT('Origin',(127.,47.4345,10.));
#1315=CARTESIAN_POINT('',(-3.5527136788005E-14,68.9345,10.));
#1316=CARTESIAN_POINT('',(254.,68.9345,10.));
#1317=CARTESIAN_POINT('',(191.,68.9345,10.));
#1318=CARTESIAN_POINT('',(-2.50648267573363E-15,25.9345,10.));
#1319=CARTESIAN_POINT('',(-2.66453525910038E-14,58.6844999999999,10.));
#1320=CARTESIAN_POINT('',(254.,25.9345,10.));
#1321=CARTESIAN_POINT('',(63.,25.9345,10.));
#1322=CARTESIAN_POINT('',(254.,36.1844999999999,10.));
#1323=CARTESIAN_POINT('',(6.31,65.532,10.));
#1324=CARTESIAN_POINT('Origin',(3.81,65.532,10.));
#1325=CARTESIAN_POINT('',(6.31,29.337,10.));
#1326=CARTESIAN_POINT('Origin',(3.81,29.337,10.));
#1327=CARTESIAN_POINT('',(172.68,65.532,10.));
#1328=CARTESIAN_POINT('Origin',(170.18,65.532,10.));
#1329=CARTESIAN_POINT('',(252.69,65.532,10.));
#1330=CARTESIAN_POINT('Origin',(250.19,65.532,10.));
#1331=CARTESIAN_POINT('',(252.69,29.337,10.));
#1332=CARTESIAN_POINT('Origin',(250.19,29.337,10.));
#1333=CARTESIAN_POINT('',(172.68,29.337,10.));
#1334=CARTESIAN_POINT('Origin',(170.18,29.337,10.));
#1335=CARTESIAN_POINT('',(86.32,29.337,10.));
#1336=CARTESIAN_POINT('Origin',(83.82,29.337,10.));
#1337=CARTESIAN_POINT('',(86.32,65.532,10.));
#1338=CARTESIAN_POINT('Origin',(83.82,65.532,10.));
#1339=CARTESIAN_POINT('Origin',(3.81,65.532,9.75));
#1340=CARTESIAN_POINT('',(5.81,65.532,9.5));
#1341=CARTESIAN_POINT('',(6.06,65.532,9.75));
#1342=CARTESIAN_POINT('Origin',(3.81,65.532,9.5));
#1343=CARTESIAN_POINT('Origin',(3.81,65.532,10.));
#1344=CARTESIAN_POINT('',(5.81,65.532,10.));
#1345=CARTESIAN_POINT('Origin',(83.82,65.532,9.75));
#1346=CARTESIAN_POINT('',(85.82,65.532,9.5));
#1347=CARTESIAN_POINT('',(86.07,65.532,9.75));
#1348=CARTESIAN_POINT('Origin',(83.82,65.532,9.5));
#1349=CARTESIAN_POINT('Origin',(83.82,65.532,10.));
#1350=CARTESIAN_POINT('',(85.82,65.532,10.));
#1351=CARTESIAN_POINT('Origin',(3.81,29.337,9.75));
#1352=CARTESIAN_POINT('',(5.81,29.337,9.5));
#1353=CARTESIAN_POINT('',(6.06,29.337,9.75));
#1354=CARTESIAN_POINT('Origin',(3.81,29.337,9.5));
#1355=CARTESIAN_POINT('Origin',(3.81,29.337,10.));
#1356=CARTESIAN_POINT('',(5.81,29.337,10.));
#1357=CARTESIAN_POINT('Origin',(83.82,29.337,9.75));
#1358=CARTESIAN_POINT('',(85.82,29.337,9.5));
#1359=CARTESIAN_POINT('',(86.07,29.337,9.75));
#1360=CARTESIAN_POINT('Origin',(83.82,29.337,9.5));
#1361=CARTESIAN_POINT('Origin',(83.82,29.337,10.));
#1362=CARTESIAN_POINT('',(85.82,29.337,10.));
#1363=CARTESIAN_POINT('Origin',(170.18,65.532,9.75));
#1364=CARTESIAN_POINT('',(172.18,65.532,9.5));
#1365=CARTESIAN_POINT('',(172.43,65.532,9.75));
#1366=CARTESIAN_POINT('Origin',(170.18,65.532,9.5));
#1367=CARTESIAN_POINT('Origin',(170.18,65.532,10.));
#1368=CARTESIAN_POINT('',(172.18,65.532,10.));
#1369=CARTESIAN_POINT('Origin',(170.18,29.337,9.75));
#1370=CARTESIAN_POINT('',(172.18,29.337,9.5));
#1371=CARTESIAN_POINT('',(172.43,29.337,9.75));
#1372=CARTESIAN_POINT('Origin',(170.18,29.337,9.5));
#1373=CARTESIAN_POINT('Origin',(170.18,29.337,10.));
#1374=CARTESIAN_POINT('',(172.18,29.337,10.));
#1375=CARTESIAN_POINT('Origin',(250.19,65.532,9.75));
#1376=CARTESIAN_POINT('',(252.19,65.532,9.5));
#1377=CARTESIAN_POINT('',(252.44,65.532,9.75));
#1378=CARTESIAN_POINT('Origin',(250.19,65.532,9.5));
#1379=CARTESIAN_POINT('Origin',(250.19,65.532,10.));
#1380=CARTESIAN_POINT('',(252.19,65.532,10.));
#1381=CARTESIAN_POINT('Origin',(250.19,29.337,9.75));
#1382=CARTESIAN_POINT('',(252.19,29.337,9.5));
#1383=CARTESIAN_POINT('',(252.44,29.337,9.75));
#1384=CARTESIAN_POINT('Origin',(250.19,29.337,9.5));
#1385=CARTESIAN_POINT('Origin',(250.19,29.337,10.));
#1386=CARTESIAN_POINT('',(252.19,29.337,10.));
#1387=CARTESIAN_POINT('Origin',(8.99999999999996,52.4345,5.));
#1388=CARTESIAN_POINT('',(8.99999999999996,52.4345,8.));
#1389=CARTESIAN_POINT('',(8.99999999999996,52.4345,5.));
#1390=CARTESIAN_POINT('',(-1.00000000000004,52.4345,8.));
#1391=CARTESIAN_POINT('',(-1.00000000000004,52.4345,8.));
#1392=CARTESIAN_POINT('',(-1.00000000000003,52.4345,5.));
#1393=CARTESIAN_POINT('Origin',(8.99999999999996,42.4345,5.));
#1394=CARTESIAN_POINT('',(8.99999999999996,42.4345,8.));
#1395=CARTESIAN_POINT('',(8.99999999999996,42.4345,5.));
#1396=CARTESIAN_POINT('',(8.99999999999996,52.4345,8.));
#1397=CARTESIAN_POINT('Origin',(-1.00000000000004,42.4345,5.));
#1398=CARTESIAN_POINT('',(-1.00000000000004,42.4345,8.));
#1399=CARTESIAN_POINT('',(-1.00000000000002,42.4345,5.));
#1400=CARTESIAN_POINT('',(8.99999999999996,42.4345,8.));
#1401=CARTESIAN_POINT('Origin',(3.99999999999996,47.4345,8.));
#1402=CARTESIAN_POINT('',(-1.00000000000003,58.6845,8.));
#1403=CARTESIAN_POINT('Origin',(-1.00000000000004,69.9345,5.));
#1404=CARTESIAN_POINT('',(-1.00000000000001,24.9345,9.));
#1405=CARTESIAN_POINT('',(-1.00000000000001,24.9345,5.));
#1406=CARTESIAN_POINT('',(-1.00000000000004,69.9345,9.));
#1407=CARTESIAN_POINT('',(-1.00000000000003,58.6844999999999,9.));
#1408=CARTESIAN_POINT('',(-1.00000000000004,69.9345,5.));
#1409=CARTESIAN_POINT('Origin',(191.,69.4345,9.5));
#1410=CARTESIAN_POINT('',(255.,69.9345,9.));
#1411=CARTESIAN_POINT('',(254.,68.9345,10.));
#1412=CARTESIAN_POINT('',(191.,69.9345,9.));
#1413=CARTESIAN_POINT('',(-3.5527136788005E-14,68.9345,10.));
#1414=CARTESIAN_POINT('Origin',(254.5,36.1844999999999,9.5));
#1415=CARTESIAN_POINT('',(255.,24.9345,9.));
#1416=CARTESIAN_POINT('',(254.,25.9345,10.));
#1417=CARTESIAN_POINT('',(255.,36.1844999999999,9.));
#1418=CARTESIAN_POINT('Origin',(63.,25.4345,9.5));
#1419=CARTESIAN_POINT('',(-2.50648267573363E-15,25.9345,10.));
#1420=CARTESIAN_POINT('',(63.,24.9345,9.));
#1421=CARTESIAN_POINT('Origin',(-0.500000000000028,58.6844999999999,9.5));
#1422=CARTESIAN_POINT('Origin',(255.,69.9345,5.));
#1423=CARTESIAN_POINT('',(255.,69.9345,5.));
#1424=CARTESIAN_POINT('Origin',(18.5,60.8845,5.));
#1425=CARTESIAN_POINT('',(18.5,60.8845,5.));
#1426=CARTESIAN_POINT('Origin',(18.5,34.3845,5.));
#1427=CARTESIAN_POINT('Origin',(255.,24.9345,5.));
#1428=CARTESIAN_POINT('',(255.,24.9345,5.));
#1429=CARTESIAN_POINT('Origin',(-1.00000000000001,24.9345,5.));
#1430=UNCERTAINTY_MEASURE_WITH_UNIT(LENGTH_MEASURE(0.01),#1434,
'DISTANCE_ACCURACY_VALUE',
'Maximum model space distance between geometric entities at asserted c
onnectivities');
#1431=UNCERTAINTY_MEASURE_WITH_UNIT(LENGTH_MEASURE(0.01),#1434,
'DISTANCE_ACCURACY_VALUE',
'Maximum model space distance between geometric entities at asserted c
onnectivities');
#1432=(
GEOMETRIC_REPRESENTATION_CONTEXT(3)
GLOBAL_UNCERTAINTY_ASSIGNED_CONTEXT((#1430))
GLOBAL_UNIT_ASSIGNED_CONTEXT((#1434,#1435,#1436))
REPRESENTATION_CONTEXT('','3D')
);
#1433=(
GEOMETRIC_REPRESENTATION_CONTEXT(3)
GLOBAL_UNCERTAINTY_ASSIGNED_CONTEXT((#1431))
GLOBAL_UNIT_ASSIGNED_CONTEXT((#1434,#1435,#1436))
REPRESENTATION_CONTEXT('','3D')
);
#1434=(
LENGTH_UNIT()
NAMED_UNIT(*)
SI_UNIT(.MILLI.,.METRE.)
);
#1435=(
NAMED_UNIT(*)
PLANE_ANGLE_UNIT()
SI_UNIT($,.RADIAN.)
);
#1436=(
NAMED_UNIT(*)
SI_UNIT($,.STERADIAN.)
SOLID_ANGLE_UNIT()
);
#1437=SHAPE_DEFINITION_REPRESENTATION(#1438,#1439);
#1438=PRODUCT_DEFINITION_SHAPE('',$,#1441);
#1439=SHAPE_REPRESENTATION('',(#870),#1432);
#1440=PRODUCT_DEFINITION_CONTEXT('part definition',#1445,'design');
#1441=PRODUCT_DEFINITION('Housing','Housing v20',#1442,#1440);
#1442=PRODUCT_DEFINITION_FORMATION('',$,#1447);
#1443=PRODUCT_RELATED_PRODUCT_CATEGORY('Housing v20','Housing v20',(#1447));
#1444=APPLICATION_PROTOCOL_DEFINITION('international standard',
'automotive_design',2009,#1445);
#1445=APPLICATION_CONTEXT(
'Core Data for Automotive Mechanical Design Process');
#1446=PRODUCT_CONTEXT('part definition',#1445,'mechanical');
#1447=PRODUCT('Housing','Housing v20',$,(#1446));
#1448=PRESENTATION_STYLE_ASSIGNMENT((#1453));
#1449=PRESENTATION_STYLE_ASSIGNMENT((#1454));
#1450=PRESENTATION_STYLE_ASSIGNMENT((#1455));
#1451=PRESENTATION_STYLE_ASSIGNMENT((#1456));
#1452=PRESENTATION_STYLE_ASSIGNMENT((#1457));
#1453=SURFACE_STYLE_USAGE(.BOTH.,#1458);
#1454=SURFACE_STYLE_USAGE(.BOTH.,#1459);
#1455=SURFACE_STYLE_USAGE(.BOTH.,#1460);
#1456=SURFACE_STYLE_USAGE(.BOTH.,#1461);
#1457=SURFACE_STYLE_USAGE(.BOTH.,#1462);
#1458=SURFACE_SIDE_STYLE('',(#1463));
#1459=SURFACE_SIDE_STYLE('',(#1464));
#1460=SURFACE_SIDE_STYLE('',(#1465));
#1461=SURFACE_SIDE_STYLE('',(#1466));
#1462=SURFACE_SIDE_STYLE('',(#1467));
#1463=SURFACE_STYLE_FILL_AREA(#1468);
#1464=SURFACE_STYLE_FILL_AREA(#1469);
#1465=SURFACE_STYLE_FILL_AREA(#1470);
#1466=SURFACE_STYLE_FILL_AREA(#1471);
#1467=SURFACE_STYLE_FILL_AREA(#1472);
#1468=FILL_AREA_STYLE('Opaque(255,191,0)',(#1473));
#1469=FILL_AREA_STYLE('Steel - Satin',(#1474));
#1470=FILL_AREA_STYLE('Opaque(120,110,70)',(#1475));
#1471=FILL_AREA_STYLE('SemiTransparent(0,128,0)',(#1476));
#1472=FILL_AREA_STYLE('Silver - Polished',(#1477));
#1473=FILL_AREA_STYLE_COLOUR('Opaque(255,191,0)',#1478);
#1474=FILL_AREA_STYLE_COLOUR('Steel - Satin',#1479);
#1475=FILL_AREA_STYLE_COLOUR('Opaque(120,110,70)',#1480);
#1476=FILL_AREA_STYLE_COLOUR('SemiTransparent(0,128,0)',#1481);
#1477=FILL_AREA_STYLE_COLOUR('Silver - Polished',#1482);
#1478=COLOUR_RGB('Opaque(255,191,0)',1.,0.749019607843137,0.);
#1479=COLOUR_RGB('Steel - Satin',0.627450980392157,0.627450980392157,0.627450980392157);
#1480=COLOUR_RGB('Opaque(120,110,70)',0.470588235294118,0.431372549019608,
0.274509803921569);
#1481=COLOUR_RGB('SemiTransparent(0,128,0)',0.,0.501960784313725,0.);
#1482=COLOUR_RGB('Silver - Polished',0.984313725490196,0.980392156862745,
0.96078431372549);
ENDSEC;
END-ISO-10303-21;
