ISO-10303-21;
HEADER;
/* Generated by software containing ST-Developer
 * from STEP Tools, Inc. (www.steptools.com) 
 */

FILE_DESCRIPTION(
/* description */ (''),
/* implementation_level */ '2;1');

FILE_NAME(
/* name */ 'Button.step',
/* time_stamp */ '2025-12-17T18:51:10-08:00',
/* author */ (''),
/* organization */ (''),
/* preprocessor_version */ 'ST-DEVELOPER v20.1',
/* originating_system */ 'Autodesk Translation Framework v14.21.0.0',
/* authorisation */ '');

FILE_SCHEMA (('AUTOMOTIVE_DESIGN { 1 0 10303 214 3 1 1 }'));
ENDSEC;

DATA;
#10=MECHANICAL_DESIGN_GEOMETRIC_PRESENTATION_REPRESENTATION('',(#13),#144);
#11=SHAPE_REPRESENTATION_RELATIONSHIP('SRR','None',#150,#12);
#12=ADVANCED_BREP_SHAPE_REPRESENTATION('',(#14),#143);
#13=STYLED_ITEM('',(#160),#14);
#14=MANIFOLD_SOLID_BREP('Body3',#81);
#15=FACE_BOUND('',#31,.T.);
#16=PLANE('',#88);
#17=PLANE('',#89);
#18=PLANE('',#93);
#19=CYLINDRICAL_SURFACE('',#86,3.65000000000002);
#20=CYLINDRICAL_SURFACE('',#91,2.15);
#21=FACE_OUTER_BOUND('',#27,.T.);
#22=FACE_OUTER_BOUND('',#28,.T.);
#23=FACE_OUTER_BOUND('',#29,.T.);
#24=FACE_OUTER_BOUND('',#30,.T.);
#25=FACE_OUTER_BOUND('',#32,.T.);
#26=FACE_OUTER_BOUND('',#33,.T.);
#27=EDGE_LOOP('',(#58,#59,#60,#61));
#28=EDGE_LOOP('',(#62,#63,#64,#65));
#29=EDGE_LOOP('',(#66));
#30=EDGE_LOOP('',(#67));
#31=EDGE_LOOP('',(#68));
#32=EDGE_LOOP('',(#69,#70,#71,#72));
#33=EDGE_LOOP('',(#73));
#34=LINE('',#126,#37);
#35=LINE('',#130,#38);
#36=LINE('',#139,#39);
#37=VECTOR('',#100,3.50000000000001);
#38=VECTOR('',#105,3.65000000000002);
#39=VECTOR('',#118,2.15);
#40=CIRCLE('',#84,3.35000000000001);
#41=CIRCLE('',#85,3.65000000000002);
#42=CIRCLE('',#87,3.65000000000002);
#43=CIRCLE('',#90,2.15);
#44=CIRCLE('',#92,2.15);
#45=VERTEX_POINT('',#123);
#46=VERTEX_POINT('',#125);
#47=VERTEX_POINT('',#129);
#48=VERTEX_POINT('',#134);
#49=VERTEX_POINT('',#137);
#50=EDGE_CURVE('',#45,#45,#40,.T.);
#51=EDGE_CURVE('',#45,#46,#34,.T.);
#52=EDGE_CURVE('',#46,#46,#41,.T.);
#53=EDGE_CURVE('',#46,#47,#35,.T.);
#54=EDGE_CURVE('',#47,#47,#42,.T.);
#55=EDGE_CURVE('',#48,#48,#43,.T.);
#56=EDGE_CURVE('',#49,#49,#44,.T.);
#57=EDGE_CURVE('',#49,#48,#36,.T.);
#58=ORIENTED_EDGE('',*,*,#50,.T.);
#59=ORIENTED_EDGE('',*,*,#51,.T.);
#60=ORIENTED_EDGE('',*,*,#52,.T.);
#61=ORIENTED_EDGE('',*,*,#51,.F.);
#62=ORIENTED_EDGE('',*,*,#52,.F.);
#63=ORIENTED_EDGE('',*,*,#53,.T.);
#64=ORIENTED_EDGE('',*,*,#54,.T.);
#65=ORIENTED_EDGE('',*,*,#53,.F.);
#66=ORIENTED_EDGE('',*,*,#50,.F.);
#67=ORIENTED_EDGE('',*,*,#54,.F.);
#68=ORIENTED_EDGE('',*,*,#55,.T.);
#69=ORIENTED_EDGE('',*,*,#56,.F.);
#70=ORIENTED_EDGE('',*,*,#57,.T.);
#71=ORIENTED_EDGE('',*,*,#55,.F.);
#72=ORIENTED_EDGE('',*,*,#57,.F.);
#73=ORIENTED_EDGE('',*,*,#56,.T.);
#74=CONICAL_SURFACE('',#83,3.50000000000001,0.785398163397467);
#75=ADVANCED_FACE('',(#21),#74,.T.);
#76=ADVANCED_FACE('',(#22),#19,.T.);
#77=ADVANCED_FACE('',(#23),#16,.T.);
#78=ADVANCED_FACE('',(#24,#15),#17,.F.);
#79=ADVANCED_FACE('',(#25),#20,.T.);
#80=ADVANCED_FACE('',(#26),#18,.F.);
#81=CLOSED_SHELL('',(#75,#76,#77,#78,#79,#80));
#82=AXIS2_PLACEMENT_3D('',#121,#94,#95);
#83=AXIS2_PLACEMENT_3D('',#122,#96,#97);
#84=AXIS2_PLACEMENT_3D('',#124,#98,#99);
#85=AXIS2_PLACEMENT_3D('',#127,#101,#102);
#86=AXIS2_PLACEMENT_3D('',#128,#103,#104);
#87=AXIS2_PLACEMENT_3D('',#131,#106,#107);
#88=AXIS2_PLACEMENT_3D('',#132,#108,#109);
#89=AXIS2_PLACEMENT_3D('',#133,#110,#111);
#90=AXIS2_PLACEMENT_3D('',#135,#112,#113);
#91=AXIS2_PLACEMENT_3D('',#136,#114,#115);
#92=AXIS2_PLACEMENT_3D('',#138,#116,#117);
#93=AXIS2_PLACEMENT_3D('',#140,#119,#120);
#94=DIRECTION('axis',(0.,0.,1.));
#95=DIRECTION('refdir',(1.,0.,0.));
#96=DIRECTION('center_axis',(0.,0.,1.));
#97=DIRECTION('ref_axis',(1.,0.,0.));
#98=DIRECTION('center_axis',(0.,0.,1.));
#99=DIRECTION('ref_axis',(1.,0.,0.));
#100=DIRECTION('',(-0.707106781186561,8.65956056235509E-17,0.707106781186534));
#101=DIRECTION('center_axis',(0.,0.,-1.));
#102=DIRECTION('ref_axis',(1.,0.,0.));
#103=DIRECTION('center_axis',(0.,0.,-1.));
#104=DIRECTION('ref_axis',(1.,0.,0.));
#105=DIRECTION('',(0.,0.,1.));
#106=DIRECTION('center_axis',(0.,0.,-1.));
#107=DIRECTION('ref_axis',(1.,0.,0.));
#108=DIRECTION('center_axis',(0.,0.,-1.));
#109=DIRECTION('ref_axis',(1.,0.,0.));
#110=DIRECTION('center_axis',(0.,0.,-1.));
#111=DIRECTION('ref_axis',(1.,0.,0.));
#112=DIRECTION('center_axis',(0.,0.,-1.));
#113=DIRECTION('ref_axis',(1.,0.,0.));
#114=DIRECTION('center_axis',(0.,0.,1.));
#115=DIRECTION('ref_axis',(1.,0.,0.));
#116=DIRECTION('center_axis',(0.,0.,1.));
#117=DIRECTION('ref_axis',(1.,0.,0.));
#118=DIRECTION('',(0.,0.,-1.));
#119=DIRECTION('center_axis',(0.,0.,-1.));
#120=DIRECTION('ref_axis',(1.,0.,0.));
#121=CARTESIAN_POINT('',(0.,0.,0.));
#122=CARTESIAN_POINT('Origin',(243.815,38.735,7.65));
#123=CARTESIAN_POINT('',(240.465,38.735,7.5));
#124=CARTESIAN_POINT('Origin',(243.815,38.735,7.5));
#125=CARTESIAN_POINT('',(240.165,38.735,7.8));
#126=CARTESIAN_POINT('',(240.315,38.735,7.65));
#127=CARTESIAN_POINT('Origin',(243.815,38.735,7.8));
#128=CARTESIAN_POINT('Origin',(243.815,38.735,8.));
#129=CARTESIAN_POINT('',(240.165,38.735,8.));
#130=CARTESIAN_POINT('',(240.165,38.735,8.));
#131=CARTESIAN_POINT('Origin',(243.815,38.735,8.));
#132=CARTESIAN_POINT('Origin',(243.815,38.735,7.5));
#133=CARTESIAN_POINT('Origin',(243.815,38.735,8.));
#134=CARTESIAN_POINT('',(241.665,38.735,8.));
#135=CARTESIAN_POINT('Origin',(243.815,38.735,8.));
#136=CARTESIAN_POINT('Origin',(243.815,38.735,8.));
#137=CARTESIAN_POINT('',(241.665,38.735,13.));
#138=CARTESIAN_POINT('Origin',(243.815,38.735,13.));
#139=CARTESIAN_POINT('',(241.665,38.735,8.));
#140=CARTESIAN_POINT('Origin',(243.815,38.735,13.));
#141=UNCERTAINTY_MEASURE_WITH_UNIT(LENGTH_MEASURE(0.01),#145,
'DISTANCE_ACCURACY_VALUE',
'Maximum model space distance between geometric entities at asserted c
onnectivities');
#142=UNCERTAINTY_MEASURE_WITH_UNIT(LENGTH_MEASURE(0.01),#145,
'DISTANCE_ACCURACY_VALUE',
'Maximum model space distance between geometric entities at asserted c
onnectivities');
#143=(
GEOMETRIC_REPRESENTATION_CONTEXT(3)
GLOBAL_UNCERTAINTY_ASSIGNED_CONTEXT((#141))
GLOBAL_UNIT_ASSIGNED_CONTEXT((#145,#146,#147))
REPRESENTATION_CONTEXT('','3D')
);
#144=(
GEOMETRIC_REPRESENTATION_CONTEXT(3)
GLOBAL_UNCERTAINTY_ASSIGNED_CONTEXT((#142))
GLOBAL_UNIT_ASSIGNED_CONTEXT((#145,#146,#147))
REPRESENTATION_CONTEXT('','3D')
);
#145=(
LENGTH_UNIT()
NAMED_UNIT(*)
SI_UNIT(.MILLI.,.METRE.)
);
#146=(
NAMED_UNIT(*)
PLANE_ANGLE_UNIT()
SI_UNIT($,.RADIAN.)
);
#147=(
NAMED_UNIT(*)
SI_UNIT($,.STERADIAN.)
SOLID_ANGLE_UNIT()
);
#148=SHAPE_DEFINITION_REPRESENTATION(#149,#150);
#149=PRODUCT_DEFINITION_SHAPE('',$,#152);
#150=SHAPE_REPRESENTATION('',(#82),#143);
#151=PRODUCT_DEFINITION_CONTEXT('part definition',#156,'design');
#152=PRODUCT_DEFINITION('Housing','Housing v20',#153,#151);
#153=PRODUCT_DEFINITION_FORMATION('',$,#158);
#154=PRODUCT_RELATED_PRODUCT_CATEGORY('Housing v20','Housing v20',(#158));
#155=APPLICATION_PROTOCOL_DEFINITION('international standard',
'automotive_design',2009,#156);
#156=APPLICATION_CONTEXT(
'Core Data for Automotive Mechanical Design Process');
#157=PRODUCT_CONTEXT('part definition',#156,'mechanical');
#158=PRODUCT('Housing','Housing v20',$,(#157));
#159=PRESENTATION_STYLE_ASSIGNMENT((#164));
#160=PRESENTATION_STYLE_ASSIGNMENT((#165));
#161=PRESENTATION_STYLE_ASSIGNMENT((#166));
#162=PRESENTATION_STYLE_ASSIGNMENT((#167));
#163=PRESENTATION_STYLE_ASSIGNMENT((#168));
#164=SURFACE_STYLE_USAGE(.BOTH.,#169);
#165=SURFACE_STYLE_USAGE(.BOTH.,#170);
#166=SURFACE_STYLE_USAGE(.BOTH.,#171);
#167=SURFACE_STYLE_USAGE(.BOTH.,#172);
#168=SURFACE_STYLE_USAGE(.BOTH.,#173);
#169=SURFACE_SIDE_STYLE('',(#174));
#170=SURFACE_SIDE_STYLE('',(#175));
#171=SURFACE_SIDE_STYLE('',(#176));
#172=SURFACE_SIDE_STYLE('',(#177));
#173=SURFACE_SIDE_STYLE('',(#178));
#174=SURFACE_STYLE_FILL_AREA(#179);
#175=SURFACE_STYLE_FILL_AREA(#180);
#176=SURFACE_STYLE_FILL_AREA(#181);
#177=SURFACE_STYLE_FILL_AREA(#182);
#178=SURFACE_STYLE_FILL_AREA(#183);
#179=FILL_AREA_STYLE('Opaque(255,191,0)',(#184));
#180=FILL_AREA_STYLE('Steel - Satin',(#185));
#181=FILL_AREA_STYLE('Opaque(120,110,70)',(#186));
#182=FILL_AREA_STYLE('SemiTransparent(0,128,0)',(#187));
#183=FILL_AREA_STYLE('Silver - Polished',(#188));
#184=FILL_AREA_STYLE_COLOUR('Opaque(255,191,0)',#189);
#185=FILL_AREA_STYLE_COLOUR('Steel - Satin',#190);
#186=FILL_AREA_STYLE_COLOUR('Opaque(120,110,70)',#191);
#187=FILL_AREA_STYLE_COLOUR('SemiTransparent(0,128,0)',#192);
#188=FILL_AREA_STYLE_COLOUR('Silver - Polished',#193);
#189=COLOUR_RGB('Opaque(255,191,0)',1.,0.749019607843137,0.);
#190=COLOUR_RGB('Steel - Satin',0.627450980392157,0.627450980392157,0.627450980392157);
#191=COLOUR_RGB('Opaque(120,110,70)',0.470588235294118,0.431372549019608,
0.274509803921569);
#192=COLOUR_RGB('SemiTransparent(0,128,0)',0.,0.501960784313725,0.);
#193=COLOUR_RGB('Silver - Polished',0.984313725490196,0.980392156862745,
0.96078431372549);
ENDSEC;
END-ISO-10303-21;
